<svg xmlns="http://www.w3.org/2000/svg" width="34" height="36" fill="none" xmlns:v="https://vecta.io/nano"><path d="M8.8 19.444c-3.205 0-5.8 2.586-5.8 5.778S5.596 31 8.8 31s5.8-2.586 5.8-5.778-2.595-5.778-5.8-5.778zm0 8.667c-1.595 0-2.9-1.3-2.9-2.889s1.305-2.889 2.9-2.889 2.9 1.3 2.9 2.889-1.305 2.889-2.9 2.889zM8.8 5C5.596 5 3 7.586 3 10.778s2.596 5.778 5.8 5.778 5.8-2.586 5.8-5.778S12.005 5 8.8 5zm8.7 2.889H32v2.889H17.5V7.889zm0 20.222v-2.889H32v2.889H17.5zm0-11.556H32v2.889H17.5v-2.889z" fill="#484d6b"/></svg>