<svg width="48" height="50" viewBox="0 0 48 50" fill="none" xmlns="http://www.w3.org/2000/svg">
<path d="M4.37107 35.9339C4.218 35.6074 4.18669 35.3115 4.27712 35.0462C4.37879 34.7009 4.62735 34.4212 5.02278 34.207C5.42619 33.9885 5.78325 33.9402 6.09395 34.0621C6.34616 34.1418 6.5488 34.345 6.70186 34.6714C6.85493 34.9979 6.88624 35.2938 6.79581 35.5592C6.70163 35.8991 6.45283 36.1783 6.04942 36.3968C5.65398 36.611 5.29717 36.6598 4.97899 36.5433C4.72677 36.4635 4.52413 36.2604 4.37107 35.9339ZM5.17416 36.0644C5.36046 36.1022 5.57762 36.0538 5.82564 35.9195C6.07266 35.7857 6.23726 35.6266 6.31941 35.4422C6.40305 35.2582 6.40055 35.0717 6.3119 34.8827C6.22326 34.6936 6.08531 34.5792 5.89804 34.5394C5.71078 34.4996 5.49313 34.5469 5.24511 34.6812C4.99709 34.8156 4.83225 34.9755 4.75057 35.1609C4.6689 35.3464 4.67239 35.5336 4.76103 35.7227C4.84967 35.9118 4.98738 36.0257 5.17416 36.0644Z" fill="#443D3A"/>
<path d="M6.87749 38.1348L6.58553 37.6884L5.8024 38.2491L5.52605 37.8266L7.52315 36.3969L8.18695 37.4117C8.27911 37.5587 8.33479 37.6824 8.35398 37.7827C8.37378 37.8839 8.37072 37.9836 8.3448 38.0819C8.32359 38.163 8.29085 38.2386 8.24657 38.3088C8.20228 38.379 8.14085 38.4422 8.06227 38.4985C7.96743 38.5664 7.85772 38.6085 7.73315 38.6248C7.60948 38.6405 7.49134 38.6049 7.37873 38.5179C7.40413 38.6399 7.39536 38.7451 7.35242 38.8335C7.31099 38.9222 7.22028 39.0167 7.08027 39.1169L6.94614 39.213C6.85491 39.2783 6.79549 39.3263 6.76786 39.3571C6.72372 39.4052 6.70293 39.4585 6.70547 39.5171L6.65534 39.553L6.3441 39.0772C6.37979 39.0324 6.40934 38.9975 6.43277 38.9725C6.48143 38.9212 6.5348 38.874 6.5929 38.8311L6.77669 38.6954C6.90282 38.6023 6.97181 38.5172 6.98366 38.4401C6.99612 38.3638 6.96073 38.2621 6.87749 38.1348ZM7.41229 38.1373C7.50653 38.1963 7.60966 38.1857 7.72166 38.1055C7.8427 38.0188 7.89675 37.919 7.88383 37.806C7.87671 37.7424 7.84255 37.6638 7.78134 37.5702L7.45265 37.0677L6.91612 37.4518L7.23654 37.9417C7.3002 38.039 7.35878 38.1042 7.41229 38.1373Z" fill="#443D3A"/>
<path d="M8.21396 41.3317C8.0653 41.2855 7.92686 41.188 7.79864 41.0392C7.58758 40.7942 7.49696 40.5178 7.52676 40.2102C7.55161 39.8951 7.70748 39.6056 7.99436 39.3418C8.28447 39.0749 8.58801 38.9434 8.90496 38.9472C9.22191 38.9509 9.49708 39.0883 9.73046 39.3592C9.93288 39.5942 10.0374 39.836 10.0439 40.0848C10.052 40.3336 9.9788 40.5479 9.82419 40.7275L9.4968 40.3474C9.59396 40.2056 9.61786 40.0555 9.56852 39.8971C9.54052 39.8089 9.49302 39.726 9.42603 39.6482C9.29781 39.4993 9.13758 39.4271 8.94534 39.4316C8.75463 39.4361 8.54987 39.539 8.33107 39.7402C8.11064 39.9429 7.9993 40.1383 7.99705 40.3262C7.9948 40.5141 8.05058 40.6741 8.16439 40.8062C8.27605 40.9358 8.40359 41.0089 8.54703 41.0253C8.69128 41.0411 8.83044 41.0045 8.96451 40.9157L8.59606 40.4879L8.89509 40.2129L9.55852 40.9831L8.597 41.8674L8.37657 41.6115L8.56675 41.3669C8.41754 41.3707 8.29995 41.359 8.21396 41.3317Z" fill="#443D3A"/>
<path d="M10.6266 43.1135L9.95916 42.5139L9.51101 42.786L9.11521 42.4304L11.3319 41.14L11.7597 41.5243L10.8312 43.9718L10.4206 43.603L10.6266 43.1135ZM10.7915 42.6961L11.1831 41.7566L10.3317 42.2831L10.7915 42.6961Z" fill="#443D3A"/>
<path d="M13.1644 45.6826L12.7419 45.3893L12.8526 43.3251L11.9159 44.816L11.5221 44.5427L12.8408 42.4438L13.284 42.7514L13.1688 44.7756L14.0893 43.3104L14.4831 43.5837L13.1644 45.6826Z" fill="#443D3A"/>
<path d="M15.3055 43.9989L15.7584 44.2519L14.6598 46.5182L14.2068 46.2651L15.3055 43.9989Z" fill="#443D3A"/>
<path d="M17.4086 47.6335C17.1756 47.7208 16.924 47.7044 16.6539 47.5844C16.3196 47.436 16.097 47.2084 15.9862 46.9016C15.8757 46.5937 15.8909 46.2456 16.0317 45.8574C16.1839 45.4376 16.41 45.1624 16.71 45.0317C16.971 44.9178 17.2476 44.9257 17.5398 45.0555C17.9309 45.2291 18.1687 45.4887 18.2533 45.8344C18.2991 46.0277 18.2985 46.201 18.2514 46.3544L17.7658 46.1387C17.776 46.0095 17.7671 45.9045 17.739 45.8238C17.6886 45.6802 17.5766 45.5699 17.4032 45.4929C17.2266 45.4145 17.0605 45.4266 16.9049 45.5292C16.7497 45.6308 16.6232 45.8164 16.5254 46.0861C16.4276 46.3558 16.4078 46.5819 16.4661 46.7643C16.5259 46.9462 16.6388 47.074 16.8049 47.1477C16.9752 47.2233 17.1259 47.2233 17.2571 47.1477C17.329 47.1077 17.4037 47.0329 17.4812 46.9234L17.9621 47.1369C17.825 47.3803 17.6405 47.5459 17.4086 47.6335Z" fill="#443D3A"/>
<path d="M20.9599 48.3769C21.0852 48.4058 21.1892 48.4153 21.272 48.4053C21.4291 48.3859 21.5195 48.3033 21.5433 48.1576C21.5572 48.0724 21.5312 47.9981 21.4652 47.9345C21.399 47.872 21.29 47.8051 21.1382 47.7338L20.8791 47.6105C20.6245 47.4888 20.4524 47.3808 20.3629 47.2863C20.2109 47.1278 20.1556 46.9221 20.1969 46.669C20.2346 46.4381 20.3487 46.2654 20.5392 46.1509C20.7297 46.0363 20.9854 46.0161 21.3062 46.0901C21.5741 46.1519 21.7906 46.2769 21.9555 46.465C22.1219 46.6522 22.1873 46.8838 22.1518 47.16L21.6412 47.0422C21.6573 46.885 21.6086 46.7594 21.4951 46.6655C21.4193 46.6032 21.3199 46.5579 21.1969 46.5295C21.0601 46.4979 20.9463 46.5007 20.8555 46.5378C20.7647 46.575 20.7111 46.6437 20.6948 46.744C20.6797 46.8361 20.7088 46.9142 20.7818 46.9782C20.8286 47.0205 20.9332 47.0815 21.0956 47.1613L21.5163 47.3691C21.7007 47.46 21.8354 47.5559 21.9204 47.6565C22.0524 47.8128 22.0996 48.0058 22.0622 48.2355C22.0237 48.4711 21.9026 48.6464 21.6989 48.7615C21.4965 48.8758 21.2332 48.8955 20.9089 48.8207C20.5778 48.7442 20.3298 48.6078 20.165 48.4113C20.0004 48.2136 19.9399 47.9806 19.9837 47.7124L20.4908 47.8294C20.4877 47.9509 20.5049 48.0462 20.5426 48.1154C20.6115 48.2414 20.7506 48.3286 20.9599 48.3769Z" fill="#443D3A"/>
<path d="M24.2207 48.0785L24.3002 46.4661L24.8562 46.5092L24.7767 48.1217C24.763 48.4005 24.7091 48.6143 24.6149 48.763C24.4398 49.0353 24.1255 49.1538 23.6718 49.1186C23.2182 49.0835 22.9173 48.9172 22.7691 48.6198C22.6903 48.4577 22.6578 48.2372 22.6715 47.9584L22.751 46.3459L23.3071 46.3891L23.2276 48.0015C23.2187 48.1819 23.2335 48.3152 23.2721 48.4016C23.3311 48.5539 23.472 48.6386 23.6947 48.6559C23.9161 48.6731 24.0637 48.6107 24.1372 48.4687C24.184 48.3889 24.2118 48.2589 24.2207 48.0785Z" fill="#443D3A"/>
<path d="M26.8001 48.0546L26.245 48.1069L26.3021 49.0493L25.7594 49.1005L25.6006 46.4795L26.7392 46.3721C27.0017 46.3474 27.215 46.3952 27.3793 46.5156C27.5435 46.6361 27.6342 46.8379 27.6514 47.1213C27.6702 47.4307 27.6054 47.6567 27.4571 47.7995C27.3087 47.9422 27.0898 48.0273 26.8001 48.0546ZM27.0224 47.4846C27.0895 47.4151 27.119 47.3121 27.1107 47.1758C27.1025 47.0395 27.0605 46.9457 26.9849 46.8944C26.9104 46.843 26.8087 46.8234 26.6799 46.8355L26.1709 46.8835L26.2176 47.6552L26.7266 47.6073C26.8555 47.5951 26.9541 47.5542 27.0224 47.4846Z" fill="#443D3A"/>
<path d="M30.1732 47.2951L28.9426 47.5937L29.0571 48.255L30.4595 47.9148L30.5395 48.3772L28.6198 48.8429L28.1747 46.2708L30.0326 45.8201L30.1114 46.2756L28.7708 46.6008L28.8653 47.147L30.0959 46.8484L30.1732 47.2951Z" fill="#443D3A"/>
<path d="M32.0173 46.8834L31.5007 47.0819L31.7935 48.0489L31.3045 48.2368L30.558 45.7708L31.7324 45.3194C31.9013 45.2583 32.0366 45.2299 32.1383 45.2344C32.241 45.2385 32.3353 45.2664 32.4211 45.3181C32.492 45.3606 32.5541 45.4139 32.6074 45.4781C32.6606 45.5423 32.702 45.6229 32.7313 45.7199C32.7668 45.837 32.773 45.9635 32.7501 46.0993C32.7268 46.234 32.6562 46.3502 32.5383 46.4478C32.6626 46.4511 32.7603 46.4864 32.8314 46.5537C32.9033 46.6194 32.9654 46.7387 33.0178 46.9116L33.0679 47.0772C33.102 47.1899 33.1295 47.2646 33.1503 47.3014C33.1825 47.36 33.227 47.3952 33.2838 47.407L33.3025 47.4689L32.7519 47.6805C32.7202 47.6317 32.696 47.5918 32.6794 47.5609C32.6454 47.4967 32.617 47.4286 32.5939 47.3565L32.5213 47.1286C32.4715 46.9721 32.4116 46.8781 32.3416 46.8465C32.2727 46.8145 32.1646 46.8268 32.0173 46.8834ZM32.1853 46.3183C32.2708 46.2331 32.2925 46.1214 32.2507 45.9831C32.2054 45.8337 32.1269 45.7518 32.0149 45.7375C31.952 45.7293 31.8664 45.7461 31.7581 45.7877L31.1766 46.0112L31.3771 46.6737L31.9441 46.4558C32.0567 46.4125 32.1371 46.3667 32.1853 46.3183Z" fill="#443D3A"/>
<path d="M34.5097 46.9185L34.0826 47.1534L33.0026 44.8743L33.6694 44.5076L34.9174 46.0803L34.4642 44.0705L35.1235 43.708L36.2034 45.9871L35.7763 46.222L35.0458 44.6804C35.0248 44.6361 34.996 44.574 34.9594 44.494C34.9223 44.4131 34.8935 44.351 34.873 44.3077L35.364 46.4487L34.919 46.6934L33.6004 45.0075C33.621 45.0507 33.6508 45.1123 33.6899 45.1922C33.7285 45.271 33.7583 45.3326 33.7793 45.3769L34.5097 46.9185Z" fill="#443D3A"/>
<path d="M38.1563 43.993L37.429 44.5293L37.5759 45.0508L37.1446 45.3688L36.4696 42.8024L36.9358 42.4587L39.0146 43.9902L38.5672 44.32L38.1563 43.993ZM37.8034 43.7252L37.0141 43.1015L37.3024 44.0946L37.8034 43.7252Z" fill="#443D3A"/>
<path d="M39.8058 41.919L39.4239 42.2794L40.0571 42.9959L39.6956 43.337L38.0807 41.5097L38.9491 40.6904C39.0754 40.5758 39.1845 40.5016 39.2766 40.4678C39.3694 40.4333 39.4638 40.4222 39.56 40.4346C39.6393 40.4446 39.715 40.4672 39.7871 40.5022C39.8592 40.5373 39.927 40.5907 39.9905 40.6626C40.0672 40.7494 40.1216 40.855 40.1537 40.9793C40.185 41.1028 40.1672 41.228 40.1002 41.3549C40.2118 41.3117 40.3122 41.3057 40.4013 41.3368C40.4905 41.3663 40.5917 41.4451 40.7049 41.5732L40.8134 41.6959C40.8872 41.7794 40.9404 41.833 40.9731 41.8567C41.0244 41.8947 41.0775 41.9083 41.1324 41.8974L41.1729 41.9432L40.7658 42.3274C40.7188 42.2974 40.6819 42.2724 40.6552 42.2521C40.6003 42.2099 40.5487 42.1623 40.5005 42.1094L40.3479 41.9418C40.2434 41.8268 40.1539 41.7687 40.0795 41.7677C40.006 41.7658 39.9147 41.8163 39.8058 41.919ZM39.7368 41.3749C39.7798 41.2707 39.756 41.1673 39.6654 41.0648C39.5676 40.9541 39.4662 40.9133 39.3613 40.9426C39.3023 40.9588 39.2327 41.0048 39.1527 41.0803L38.7227 41.486L39.1565 41.9769L39.5757 41.5814C39.659 41.5029 39.7127 41.434 39.7368 41.3749Z" fill="#443D3A"/>
<path d="M43.1897 39.523L42.7719 40.0293L41.494 39.9068L41.5259 40.2599L42.1366 40.7992L41.8168 41.1866L39.9909 39.5744L40.3107 39.1869L41.0626 39.8509L40.9111 38.4593L41.3311 37.9503L41.4457 39.3867L43.1897 39.523Z" fill="#443D3A"/>
<path d="M43.6977 36.7533L43.0537 37.7692L43.5731 38.1299L44.3071 36.9721L44.6703 37.2243L43.6655 38.8093L41.6454 37.4064L42.6178 35.8725L42.9755 36.1209L42.2738 37.2277L42.7028 37.5256L43.3469 36.5096L43.6977 36.7533Z" fill="#443D3A"/>
<path d="M43.7465 33.5667L44.135 33.7792L43.8099 34.4593L45.6154 35.4471L45.3869 35.9251L43.5813 34.9374L43.2547 35.6205L42.8662 35.408L43.7465 33.5667Z" fill="#443D3A"/>
<path d="M7.95311 16.1711L7.48892 17.0449L3.72094 17.0325L6.58164 18.7528L6.14909 19.5671L2.12171 17.1451L2.60851 16.2287L6.3047 16.2542L3.49318 14.5634L3.92573 13.7492L7.95311 16.1711Z" fill="#443D3A"/>
<path d="M9.68506 12.5743L8.57252 13.8679L9.0633 14.753L8.40356 15.5201L6.07711 11.1434L6.79012 10.3144L11.2638 12.1944L10.5795 12.9901L9.68506 12.5743ZM8.92225 12.2409L7.20576 11.4502L8.15597 13.1319L8.92225 12.2409Z" fill="#443D3A"/>
<path d="M11.6714 6.13755L12.1594 6.80289L11.0742 7.6665L13.3419 10.7587L12.5791 11.3658L10.3113 8.27358L9.22123 9.1411L8.73329 8.47576L11.6714 6.13755Z" fill="#443D3A"/>
<path d="M16.6838 6.95384L15.5112 4.25327L16.4055 3.78371L17.5781 6.48428C17.7809 6.95126 17.8692 7.35142 17.8432 7.68475C17.7913 8.29769 17.4005 8.79569 16.671 9.17874C15.9414 9.56179 15.3427 9.58336 14.8746 9.24346C14.6225 9.05615 14.3951 8.729 14.1923 8.26202L13.0198 5.56145L13.914 5.09189L15.0866 7.79245C15.2178 8.0945 15.3479 8.29708 15.4768 8.40018C15.6905 8.59058 15.9764 8.59177 16.3345 8.40374C16.6907 8.21672 16.8686 7.97199 16.8683 7.66958C16.8764 7.49447 16.815 7.25589 16.6838 6.95384Z" fill="#443D3A"/>
<path d="M20.9874 5.78509L19.9577 6.0667L20.2762 7.9801L19.3014 8.24665L18.4893 3.36714L20.8305 2.72689C21.1662 2.642 21.4301 2.61368 21.6221 2.64192C21.8163 2.66957 21.9885 2.74132 22.1387 2.85715C22.2629 2.9524 22.3677 3.06679 22.4531 3.20033C22.5386 3.33387 22.5973 3.49665 22.6292 3.68865C22.6678 3.92038 22.6486 4.16444 22.5717 4.42083C22.4943 4.67502 22.3317 4.88447 22.0838 5.04919C22.319 5.07946 22.4959 5.16606 22.6145 5.30899C22.7349 5.44912 22.8236 5.69022 22.8805 6.0323L22.9351 6.36003C22.9722 6.58293 23.006 6.73174 23.0365 6.80647C23.0833 6.92518 23.1592 7.00134 23.2641 7.03495L23.2845 7.15743L22.1867 7.45763C22.1385 7.35776 22.1024 7.27649 22.0784 7.21382C22.0297 7.08408 21.9924 6.94778 21.9663 6.80492L21.8844 6.35316C21.8283 6.04317 21.7376 5.85107 21.6124 5.77686C21.4893 5.70206 21.281 5.70481 20.9874 5.78509ZM21.4453 4.73231C21.6285 4.58531 21.6973 4.37498 21.6518 4.10132C21.6025 3.80559 21.4734 3.63324 21.2644 3.58426C21.1469 3.5564 20.9802 3.57199 20.7643 3.63102L19.605 3.94805L19.8232 5.25896L20.9534 4.94991C21.1779 4.88851 21.3419 4.81598 21.4453 4.73231Z" fill="#443D3A"/>
<path d="M27.3582 5.24342L24.9376 5.12142L24.9096 6.40374L27.6683 6.54278L27.6488 7.4394L23.8725 7.24907L23.9811 2.26186L27.6357 2.44606L27.6165 3.32914L24.9795 3.19623L24.9564 4.25525L27.377 4.37725L27.3582 5.24342Z" fill="#443D3A"/>
<path d="M34.2279 5.49971L32.0065 4.53579L31.6567 5.59571L33.6015 6.43963L33.3374 7.24005L31.3926 6.39613L30.7549 8.32838L29.8351 7.92924L31.354 3.32686L34.4951 4.68992L34.2279 5.49971Z" fill="#443D3A"/>
<path d="M35.1772 10.5052C34.6297 10.1252 34.3081 9.67993 34.2125 9.16943C34.0619 8.52017 34.2102 7.83814 34.6572 7.12335C35.1133 6.39415 35.6496 5.98148 36.2663 5.88534C36.7494 5.77647 37.2646 5.91203 37.8121 6.29202C38.3597 6.672 38.6812 7.11725 38.7769 7.62775C38.9347 8.26141 38.7856 8.94283 38.3296 9.67203C37.8825 10.3868 37.347 10.8001 36.7231 10.9118C36.24 11.0207 35.7248 10.8852 35.1772 10.5052ZM36.6024 9.96056C36.9398 9.84616 37.2487 9.5648 37.5291 9.11648C37.8083 8.66996 37.9304 8.26023 37.8953 7.88729C37.863 7.51376 37.6884 7.21697 37.3713 6.99691C37.0542 6.77685 36.7253 6.72282 36.3844 6.83482C36.0435 6.94681 35.7329 7.22697 35.4525 7.67529C35.1721 8.12361 35.0504 8.53484 35.0872 8.90898C35.1241 9.28312 35.301 9.58022 35.6181 9.80027C35.9352 10.0203 36.2633 10.0738 36.6024 9.96056Z" fill="#443D3A"/>
<path d="M39.174 13.7894C38.7303 13.2992 38.5204 12.7999 38.5445 12.2913C38.5472 11.6378 38.847 11.023 39.4439 10.4471C40.0529 9.85953 40.6673 9.59224 41.2871 9.6452C41.7802 9.65471 42.2487 9.90454 42.6924 10.3947C43.1362 10.8848 43.346 11.3842 43.3219 11.8928C43.3299 12.5332 43.0294 13.1471 42.4204 13.7347C41.8235 14.3106 41.2098 14.5787 40.5794 14.5389C40.0862 14.5294 39.6178 14.2795 39.174 13.7894ZM40.6801 13.6047C41.0334 13.5748 41.3972 13.3793 41.7716 13.018C42.1445 12.6583 42.3566 12.2967 42.4079 11.9333C42.4622 11.5701 42.3608 11.2465 42.1038 10.9626C41.8468 10.6788 41.5403 10.5503 41.1842 10.577C40.8282 10.6038 40.4629 10.7978 40.0885 11.159C39.7141 11.5203 39.502 11.8833 39.4521 12.2483C39.4021 12.6132 39.5057 12.9376 39.7627 13.2214C40.0197 13.5053 40.3255 13.633 40.6801 13.6047Z" fill="#443D3A"/>
<path d="M42.3361 18.1097L41.3531 16.3271L45.3399 13.8566L46.3229 15.6392C46.4607 15.8979 46.5495 16.1291 46.5893 16.3329C46.6573 16.68 46.6182 17.0193 46.472 17.351C46.3531 17.618 46.1927 17.8492 45.9908 18.0446C45.7889 18.2401 45.5834 18.4026 45.3742 18.5322C44.8441 18.8607 44.3342 19.0285 43.8446 19.0356C43.1836 19.0435 42.6807 18.7348 42.3361 18.1097ZM45.6604 16.9123C45.8035 16.6453 45.7667 16.3153 45.55 15.9223L45.1104 15.125L42.5084 16.7374L42.948 17.5347C43.173 17.9427 43.5237 18.107 44.0001 18.0278C44.2614 17.9839 44.539 17.8709 44.8329 17.6887C45.2386 17.4373 45.5144 17.1785 45.6604 16.9123Z" fill="#443D3A"/>
<path d="M16.0277 16.9627C16.4207 17.2497 16.9016 17.362 17.3671 17.2812C17.2854 16.8005 17.0253 16.3697 16.6325 16.0827C16.2394 15.7925 15.7585 15.6834 15.293 15.7613C15.3747 16.2418 15.6315 16.6725 16.0277 16.9627ZM19.3749 40.7039C19.3749 40.3421 19.0904 40.0456 18.7368 40.0456C18.3863 40.0456 18.1017 40.3421 18.1017 40.7039C18.1017 41.066 18.3863 41.3593 18.7368 41.3593C19.0904 41.3593 19.3749 41.066 19.3749 40.7039ZM15.9913 21.0445H21.2283C21.1376 19.6309 20.0004 18.5106 18.6098 18.5106C17.2191 18.5106 16.0791 19.6309 15.9913 21.0445ZM22.4558 21.0445H27.6925C27.6682 20.6293 27.5566 20.23 27.3568 19.8775C26.8913 19.0347 26.0174 18.5106 25.0771 18.5106C23.6831 18.5106 22.5434 19.6309 22.4558 21.0445ZM29.9966 40.7039C29.9966 40.3421 29.7124 40.0456 29.3585 40.0456C29.0077 40.0456 28.7234 40.3421 28.7234 40.7039C28.7234 41.066 29.0077 41.3593 29.3585 41.3593C29.7124 41.3593 29.9966 41.066 29.9966 40.7039ZM30.3832 17.6678L30.5105 14.1854L28.6904 14.1135L28.4907 19.4311C28.503 19.4559 28.515 19.481 28.5271 19.5059C28.6359 19.2812 28.766 19.0627 28.9201 18.86C29.3101 18.3388 29.812 17.9331 30.3832 17.6678ZM30.7704 33.4579L31.1939 31.9915H16.188L16.6112 33.4579H30.7704ZM29.6063 21.0445L31.4113 18.6229C31.3268 18.6446 31.2423 18.6633 31.1635 18.6914C30.6495 18.86 30.2081 19.1813 29.8755 19.6245C29.5641 20.0397 29.3797 20.5326 29.3341 21.0445H29.6063ZM31.3389 20.7884C31.7199 20.2768 31.9073 19.6465 31.8863 19.0098L30.3684 21.0445H31.1181C31.1939 20.9631 31.2692 20.8791 31.3389 20.7884ZM31.5568 30.7433L32.1219 28.7834H15.2597L15.8251 30.7433H31.5568ZM32.4817 27.5352L33.0473 25.5785H14.3343L14.9 27.5352H32.4817ZM33.4102 24.3303L33.9965 22.2927H13.3851L13.9715 24.3303H33.4102ZM33.2073 21.0445L34.5742 16.9751L33.6972 16.663L33.0593 18.5606C33.1743 19.4187 33.014 20.2892 32.6117 21.0445H33.2073ZM40.8508 21.6497H37.4011V21.9647H40.8508V21.6497ZM42.0604 21.0257V22.5889C42.0604 22.9354 41.7882 23.2132 41.4559 23.2132H36.7963C36.4639 23.2132 36.1917 22.9354 36.1917 22.5889V22.2927H35.2604L31.8016 34.26C31.723 34.5254 31.4871 34.7064 31.2211 34.7064H19.3928V35.1276H31.2211C31.5534 35.1276 31.8259 35.4083 31.8259 35.7516V38.1512C31.8259 38.4945 31.5534 38.7755 31.2211 38.7755H29.963V38.9066C30.6856 39.1656 31.206 39.8706 31.206 40.7039C31.206 41.7523 30.3773 42.6075 29.3585 42.6075C28.3427 42.6075 27.5143 41.7523 27.5143 40.7039C27.5143 39.8706 28.0341 39.1656 28.7537 38.9066V38.7755H19.3416V38.9066C20.0642 39.1656 20.5843 39.8706 20.5843 40.7039C20.5843 41.7523 19.7557 42.6075 18.7368 42.6075C17.721 42.6075 16.8924 41.7523 16.8924 40.7039C16.8924 39.8706 17.4124 39.1656 18.132 38.9066V38.7755H16.7684C16.4327 38.7755 16.1636 38.4945 16.1636 38.1512C16.1636 37.8051 16.4327 37.5273 16.7684 37.5273H30.6163V36.3758H18.7883C18.4556 36.3758 18.1834 36.0949 18.1834 35.7516V34.7064H16.1608C15.8945 34.7064 15.6589 34.5254 15.58 34.26L11.9942 21.8463C11.9399 21.6592 11.9732 21.4531 12.0879 21.294C12.2029 21.1381 12.3813 21.0445 12.5716 21.0445H14.7819C14.8272 19.9802 15.2776 19.0286 15.9823 18.342C15.7527 18.2513 15.5319 18.1298 15.3263 17.9799C14.4798 17.3591 14.005 16.3448 14.0593 15.2682C14.0716 15.0279 14.2196 14.8157 14.4345 14.7251C15.4018 14.3165 16.4842 14.4444 17.3307 15.0655C18.0444 15.5866 18.4859 16.3853 18.5796 17.2653C18.5885 17.2653 18.5978 17.2624 18.6098 17.2624C19.9674 17.2624 21.1586 17.9955 21.8418 19.0973C22.5255 17.9955 23.7164 17.2624 25.0771 17.2624C25.8996 17.2624 26.6857 17.5402 27.3328 18.0238L27.5048 13.4428C27.5171 13.0963 27.8014 12.8281 28.1309 12.8434L31.1607 12.9621C31.3207 12.9684 31.4751 13.0403 31.5836 13.1587C31.6927 13.2805 31.7501 13.4428 31.7442 13.608L31.6052 17.328C31.8016 17.3092 31.998 17.306 32.1977 17.3184L32.7539 15.6646C32.863 15.3401 33.2073 15.1651 33.5218 15.2806L35.5416 16.0015C35.6929 16.0547 35.8166 16.1702 35.8863 16.3197C35.9556 16.4667 35.9651 16.6382 35.9137 16.7944L34.4864 21.0445H36.1917V21.0257C36.1917 20.6793 36.4639 20.4015 36.7963 20.4015H41.4559C41.7882 20.4015 42.0604 20.6793 42.0604 21.0257Z" fill="#443D3A"/>
<path d="M26.7153 19.587C26.8269 19.7149 26.818 19.9147 26.694 20.0302C26.5701 20.1457 26.3796 20.1361 26.2677 20.0082C25.9625 19.6618 25.53 19.4622 25.0765 19.4622C24.5444 19.4622 24.0487 19.7337 23.7491 20.1924C23.6886 20.2796 23.5949 20.3296 23.4981 20.3296C23.4408 20.3296 23.3804 20.3108 23.3289 20.2768C23.1896 20.1797 23.1538 19.9863 23.2475 19.8428C23.6584 19.2125 24.3419 18.838 25.0765 18.838C25.6992 18.838 26.2982 19.1126 26.7153 19.587Z" fill="#443D3A"/>
<path d="M29.3543 40.0453C29.7082 40.0453 29.9922 40.3418 29.9922 40.7036C29.9922 41.0657 29.7082 41.359 29.3543 41.359C29.0035 41.359 28.719 41.0657 28.719 40.7036C28.719 40.3418 29.0035 40.0453 29.3543 40.0453Z" fill="#B27547"/>
<path d="M18.7369 40.0453C19.0908 40.0453 19.375 40.3418 19.375 40.7036C19.375 41.0657 19.0908 41.359 18.7369 41.359C18.3864 41.359 18.1018 41.0657 18.1018 40.7036C18.1018 40.3418 18.3864 40.0453 18.7369 40.0453Z" fill="#B27547"/>
<path d="M34.5718 16.9752L33.205 21.0443H32.6094C33.0117 20.2893 33.172 19.4184 33.057 18.5603L33.6948 16.6631L34.5718 16.9752Z" fill="#8DA34F"/>
<path d="M30.4964 14.1852L30.3694 17.6678C29.7981 17.9329 29.2962 18.3386 28.906 18.8597C28.7521 19.0627 28.622 19.281 28.5129 19.5056C28.5009 19.4808 28.4889 19.4557 28.4766 19.4308L28.6763 14.1133L30.4964 14.1852Z" fill="#8DA34F"/>
<path d="M31.8667 19.0547C31.9165 19.6931 31.7473 20.3106 31.3701 20.7964C31.3011 20.882 31.2254 20.9611 31.1498 21.0371L30.3626 20.9855L31.8667 19.0547Z" fill="#5A9B68"/>
<path d="M31.4209 18.6226L29.616 21.0441H29.3438C29.3891 20.5325 29.5734 20.0394 29.8851 19.6245C30.2177 19.1813 30.6589 18.8599 31.1731 18.6913C31.252 18.6633 31.3362 18.6445 31.4209 18.6226Z" fill="#5A9B68"/>
<path d="M17.3831 17.3026C16.9228 17.3643 16.442 17.2365 16.0436 16.9409C15.6424 16.6425 15.3754 16.2123 15.2812 15.7397C15.7416 15.6808 16.2224 15.8056 16.6208 16.1042C17.0187 16.3994 17.289 16.8298 17.3831 17.3026Z" fill="#5A9B68"/>
<path d="M26.697 20.0301C26.8209 19.9146 26.8301 19.7151 26.7182 19.5869C26.3011 19.1125 25.7022 18.8382 25.0794 18.8382C24.3448 18.8382 23.6614 19.2124 23.2504 19.843C23.1567 19.9865 23.1928 20.1799 23.3318 20.2767C23.3833 20.311 23.4437 20.3298 23.5011 20.3298C23.5979 20.3298 23.6916 20.2798 23.7523 20.1924C24.0516 19.7336 24.5473 19.4622 25.0794 19.4622C25.5329 19.4622 25.9654 19.662 26.2709 20.0081C26.3825 20.1363 26.5733 20.1456 26.697 20.0301ZM27.6979 21.0444H22.4609C22.5488 19.6308 23.6885 18.5105 25.0825 18.5105C26.0228 18.5105 26.8967 19.0345 27.3622 19.8774C27.562 20.2299 27.6736 20.6292 27.6979 21.0444Z" fill="#F2A000"/>
<path d="M37.3941 21.6499H40.8438V21.9649H37.3941V21.6499Z" fill="#DB8358"/>
<path d="M33.9872 23.0062L33.475 24.8503L13.9779 23.6568L13.3133 21.7409L33.9872 23.0062Z" fill="#DB8358"/>
<path d="M33.0475 26.2312L32.5536 28.0035L14.9154 26.9217L14.2745 25.0796L33.0475 26.2312Z" fill="#DB8358"/>
<path d="M32.1207 29.379L31.6267 31.1564L15.8396 30.1872L15.1988 28.3401L32.1207 29.379Z" fill="#DB8358"/>
<path d="M31.1927 32.5111L30.8229 33.8382L16.6215 32.9681L16.142 31.5887L31.1927 32.5111Z" fill="#DB8358"/>
<path d="M20.2719 20.2579C20.402 20.1488 20.4199 19.9521 20.3141 19.8179C19.8937 19.2843 19.2678 18.9754 18.6029 18.9754C17.9496 18.9754 17.3328 19.2716 16.9126 19.7899C16.8038 19.9209 16.822 20.1176 16.949 20.2299C17.076 20.3422 17.2665 20.3234 17.3753 20.1924C17.6805 19.8147 18.1281 19.5996 18.6029 19.5996C19.0866 19.5996 19.54 19.8242 19.8455 20.2111C19.906 20.2859 19.9935 20.3266 20.0811 20.3266C20.148 20.3266 20.2143 20.3047 20.2719 20.2579ZM21.2214 21.0444H15.9844C16.0719 19.6308 17.2119 18.5105 18.6029 18.5105C19.9935 18.5105 21.1304 19.6308 21.2214 21.0444Z" fill="#BC3942"/>
<path d="M20.3246 19.8179C20.4304 19.9521 20.4122 20.1487 20.2824 20.2579C20.2248 20.3047 20.1582 20.3266 20.0916 20.3266C20.004 20.3266 19.9165 20.2859 19.8558 20.2111C19.5503 19.8239 19.0968 19.5996 18.6134 19.5996C18.1386 19.5996 17.691 19.8147 17.3855 20.1923C17.2767 20.3234 17.0865 20.3419 16.9595 20.2299C16.8325 20.1176 16.814 19.9206 16.9231 19.7899C17.3433 19.2716 17.9602 18.9753 18.6134 18.9753C19.2784 18.9753 19.9042 19.2843 20.3246 19.8179Z" fill="#443D3A"/>
</svg>
