<svg xmlns="http://www.w3.org/2000/svg" width="29" height="40" fill="none" fill-rule="evenodd" xmlns:v="https://vecta.io/nano"><path d="M13.806.079c0 .043-.035.079-.079.079s-.079.024-.079.052-.035.052-.079.052-.079.034-.079.075-.071.09-.158.109-.158.068-.158.109-.027.075-.06.075-.113.058-.179.129-.181.144-.255.163-.136.067-.136.107-.026.073-.059.073-.15.094-.262.21-.227.21-.256.21-.053.035-.053.079-.035.079-.079.079-.079.035-.079.079-.035.079-.079.079-.079.035-.079.079-.035.079-.079.079-.079.035-.079.079-.036.079-.079.079-.079.035-.079.079-.035.079-.079.079-.079.035-.079.079-.035.079-.079.079-.079.035-.079.079-.035.079-.079.079-.079.035-.079.079-.035.079-.079.079-.079.025-.079.055-.059.11-.131.177-.131.14-.131.163-.083.121-.184.22-.184.202-.184.231-.056.105-.124.168-.142.172-.164.242-.093.176-.157.236-.136.167-.157.236-.094.177-.161.239a.62.62 0 0 0-.157.254c-.02.078-.055.142-.078.142s-.058.069-.076.153-.068.166-.109.182-.076.089-.076.162-.022.133-.048.133-.064.071-.083.157-.054.157-.079.157-.06.071-.079.157-.053.157-.076.157-.055.098-.071.218-.051.232-.078.249-.063.124-.081.238-.054.219-.081.236-.066.16-.087.319-.057.301-.08.315-.049.192-.059.394l-.019.367.21.017c.115.009.229.051.252.092.028.051.136.075.332.075.188 0 .318.028.369.079s.175.079.311.079c.172 0 .232.021.232.079s.061.079.231.079c.157 0 .24.025.261.079s.101.079.236.079.216.027.236.079c.017.043.092.079.167.079a.35.35 0 0 1 .215.079c.043.043.148.079.232.079.102 0 .154.027.154.079s.052.079.152.079c.087 0 .165.034.182.079s.087.079.157.079.141.035.157.079.088.079.158.079.141.035.158.079.09.079.163.079c.083 0 .133.03.133.079 0 .043.036.079.079.079s.079.022.079.048.071.064.157.083.158.068.158.109.035.075.079.075.079.022.079.048.071.064.158.083.158.068.158.109c0 .048.056.075.157.075s.157-.027.157-.075c0-.041.071-.09.157-.109s.158-.056.158-.083.035-.048.079-.048.079-.034.079-.075.071-.09.157-.109.158-.056.158-.083.035-.048.079-.048.079-.035.079-.079c0-.053.052-.079.157-.079s.158-.026.158-.079.053-.079.157-.079.158-.026.158-.079.053-.079.158-.079.157-.026.157-.079.053-.079.157-.079.158-.026.158-.079.052-.079.157-.079.157-.026.157-.079c0-.058.061-.079.236-.079s.236-.02.236-.079.061-.079.236-.079.236-.02.236-.079.061-.079.236-.079.236-.02.236-.079.067-.079.29-.079c.21 0 .299-.022.321-.079s.11-.079.311-.079c.185 0 .295-.025.322-.073s.183-.079.536-.092c.335-.013.501-.04.516-.084.012-.036.055-.066.096-.066.048 0 .074-.057.074-.157 0-.087-.02-.157-.045-.157s-.061-.17-.08-.378-.054-.391-.078-.407-.058-.121-.075-.234-.053-.219-.079-.236-.061-.123-.079-.236-.053-.219-.079-.236-.063-.119-.083-.227-.058-.197-.084-.197-.063-.083-.082-.184-.054-.184-.077-.184-.058-.071-.077-.157-.054-.157-.077-.157-.057-.059-.076-.131-.056-.131-.084-.131-.051-.047-.051-.105-.035-.105-.079-.105c-.049 0-.079-.05-.079-.133 0-.073-.033-.146-.074-.161s-.088-.086-.106-.156-.055-.127-.083-.127-.051-.047-.051-.105-.035-.105-.079-.105-.079-.035-.079-.079-.034-.079-.075-.079-.09-.071-.109-.157-.056-.157-.083-.157-.048-.035-.048-.079-.035-.079-.079-.079-.079-.035-.079-.079-.033-.079-.073-.079-.088-.059-.106-.131-.056-.131-.084-.131-.052-.035-.052-.079-.035-.079-.079-.079a.08.08 0 0 1-.079-.08.13.13 0 0 0-.079-.111c-.043-.017-.079-.063-.079-.103s-.035-.073-.079-.073-.079-.035-.079-.079-.035-.079-.079-.079-.079-.035-.079-.079-.035-.079-.079-.079-.079-.035-.079-.079-.035-.079-.079-.079-.079-.035-.079-.079-.035-.079-.079-.079-.079-.035-.079-.079-.025-.079-.055-.079-.11-.059-.177-.131-.149-.131-.181-.131-.06-.035-.06-.079-.035-.079-.079-.079-.079-.035-.079-.079-.035-.079-.079-.079-.079-.034-.079-.075-.071-.09-.157-.109-.158-.068-.158-.109-.035-.075-.079-.075-.079-.024-.079-.052-.035-.052-.079-.052-.079-.034-.079-.075-.071-.09-.158-.109-.157-.068-.157-.109-.035-.075-.079-.075-.079-.024-.079-.052-.035-.052-.079-.052-.079-.034-.079-.075-.071-.09-.157-.109-.158-.056-.158-.083S14.05 0 13.963 0c-.105 0-.157.026-.157.079zM3.622 10.229c0 .025-.138.061-.308.08l-.308.035-.033.352c-.018.194-.057.36-.086.37-.084.028-.072 2.409.012 2.437.046.015.071.201.084.617.013.422.04.616.092.669.041.041.074.12.074.175 0 .091.04.101.394.101.217 0 .394.02.394.044s.346.059.769.076.783.053.801.079.23.063.474.081.456.054.472.079.182.061.368.08.351.055.367.08.165.062.331.082.302.059.302.086.081.049.18.049.211.031.25.07.162.085.275.103.219.054.236.08.123.061.236.079.219.053.236.079.095.062.175.081.144.059.144.087.072.052.159.052c.093 0 .172.033.189.079s.088.079.158.079.141.036.157.079.088.079.157.079.141.035.158.079.088.079.158.079.141.035.157.079.087.079.156.079c.077 0 .126.031.126.079s.046.079.101.079.136.034.177.076.138.092.214.111.138.056.138.081.035.047.079.047.079.035.079.079.035.079.079.079.079.035.079.079.046.079.101.079.137.035.18.079.104.079.135.079.056.036.056.079.036.079.079.079.079.035.079.079.046.079.101.079.137.035.18.079.104.079.135.079.056.035.056.079.036.079.079.079.079.035.079.079.035.079.079.079.079.035.079.079.035.079.079.079.079.035.079.079.035.079.079.079.079.033.079.073c0 .081.219.139.373.099.055-.014.1-.059.1-.099s.035-.073.079-.073.079-.035.079-.079.036-.079.079-.079.079-.035.079-.079.035-.079.079-.079.079-.035.079-.079.035-.079.079-.079.079-.035.079-.079.035-.079.079-.079.079-.035.079-.079.035-.079.079-.079.079-.022.079-.048.071-.064.158-.083.158-.068.158-.109.035-.075.079-.075.079-.035.079-.079.023-.079.052-.079.099-.041.158-.09c.13-.111.149-.474.027-.521-.051-.02-.079-.102-.079-.236s-.027-.216-.079-.236c-.045-.017-.079-.095-.079-.182 0-.1-.027-.152-.079-.152s-.079-.058-.079-.21-.022-.21-.079-.21-.079-.053-.079-.158-.026-.157-.079-.157-.079-.053-.079-.157-.026-.158-.079-.158c-.044 0-.079-.047-.079-.105s-.035-.105-.079-.105c-.049 0-.079-.05-.079-.131s-.03-.131-.079-.131c-.044 0-.079-.047-.079-.105s-.035-.105-.079-.105c-.049 0-.079-.05-.079-.131s-.03-.131-.079-.131c-.044 0-.079-.047-.079-.105s-.035-.105-.079-.105c-.049 0-.079-.05-.079-.131s-.03-.131-.079-.131c-.043 0-.079-.035-.079-.079s-.035-.079-.079-.079-.079-.035-.079-.079-.035-.079-.079-.079-.079-.035-.079-.079-.035-.079-.079-.079-.079-.035-.079-.079-.035-.079-.079-.079-.079-.035-.079-.079-.035-.079-.079-.079-.079-.035-.079-.079-.035-.079-.079-.079-.079-.036-.079-.079-.035-.079-.079-.079-.079-.035-.079-.079-.036-.079-.079-.079-.079-.034-.079-.075-.071-.09-.157-.109-.158-.056-.158-.083-.035-.048-.079-.048-.079-.034-.079-.075-.071-.09-.157-.109-.158-.056-.158-.083-.035-.048-.079-.048-.079-.035-.079-.079c0-.049-.05-.079-.133-.079-.073 0-.146-.034-.162-.076s-.098-.091-.182-.109-.153-.055-.153-.082-.034-.048-.075-.048-.107-.033-.147-.072-.148-.089-.24-.109-.168-.059-.168-.085-.06-.048-.133-.048-.146-.035-.163-.079-.095-.079-.178-.079-.184-.035-.227-.079-.15-.079-.236-.079-.189-.032-.228-.07-.174-.084-.3-.101-.244-.053-.262-.08-.158-.061-.313-.076-.296-.05-.315-.08-.218-.063-.443-.074-.426-.046-.446-.077-.306-.07-.665-.087c-.374-.018-.636-.053-.647-.086-.023-.069-2.477-.08-2.477-.011zm17.68.009c-.011.033-.298.068-.7.087-.395.018-.697.055-.718.088s-.221.066-.446.077c-.277.014-.423.044-.451.093s-.138.073-.322.073c-.201 0-.289.022-.311.079s-.102.079-.237.079c-.114 0-.215.024-.225.054s-.112.069-.227.087-.228.065-.252.104-.131.071-.249.071c-.149 0-.207.022-.207.079s-.053.079-.158.079-.157.026-.157.079-.053.079-.157.079-.158.026-.158.079-.052.079-.157.079-.157.026-.157.079-.053.079-.158.079-.157.026-.157.079-.053.079-.157.079-.158.026-.158.079c0 .043-.035.079-.079.079s-.079.035-.079.079c0 .053-.053.079-.157.079-.087 0-.158.024-.158.053s.035.052.079.052.079.047.079.105.035.105.079.105c.049 0 .079.05.079.131s.03.131.079.131c.043 0 .079.035.079.079s.035.079.079.079.079.047.079.105.035.105.079.105.079.036.079.079.035.079.079.079.079.025.079.056.035.092.079.135.079.124.079.18.035.101.079.101.079.025.079.056.035.092.079.135.079.124.079.18.035.101.079.101c.049 0 .079.05.079.131s.03.131.079.131.079.053.079.158.026.157.079.157.079.053.079.158.026.157.079.157.079.053.079.158.026.158.079.158.079.053.079.157.026.158.079.158.079.055.079.184.024.184.079.184.079.058.079.21.022.21.079.21c.043 0 .079.036.079.079s.035.079.079.079.079-.022.079-.048.071-.064.157-.083.157-.056.157-.082.093-.063.207-.081.219-.066.235-.106.098-.072.183-.072.163-.024.173-.054.112-.069.227-.088.241-.065.279-.104a.36.36 0 0 1 .219-.07c.082 0 .158-.025.168-.056s.124-.07.254-.086.25-.054.269-.083.16-.064.315-.078.294-.046.31-.071.181-.06.367-.079.352-.055.368-.08.229-.06.472-.079.458-.057.476-.085.379-.064.8-.078c.578-.02.767-.043.767-.094 0-.037.032-.099.07-.138.046-.045.082-.281.105-.673.019-.332.058-.611.087-.62.072-.024.073-3.001 0-3.001-.029 0-.052-.068-.052-.15 0-.139-.018-.153-.244-.184a3.71 3.71 0 0 0-.394-.033c-.083 0-.15-.024-.15-.053 0-.074-2.242-.071-2.267.003zM1.115 16.78c-.366.012-.643.042-.643.071s-.071.051-.157.051H.157v.315c0 .245-.017.315-.079.315-.068 0-.079.219-.079 1.654l.079 1.654c.066 0 .079.105.079.63s.013.63.079.63.079.088.079.472.015.472.079.472.079.07.079.315.017.315.079.315.079.07.079.315.017.315.079.315.079.061.079.236.02.236.079.236.079.061.079.236.02.236.079.236c.052 0 .079.053.079.158s.026.157.079.157.079.058.079.204c0 .133.027.215.079.235.046.018.079.096.079.189 0 .106.026.159.079.159s.079.049.079.126c0 .069.035.139.079.156s.079.09.079.163c0 .083.029.133.079.133s.079.053.079.158.026.157.079.157c.044 0 .079.047.079.105s.035.105.079.105c.049 0 .079.05.079.131s.03.131.079.131c.044 0 .079.047.079.105s.035.105.079.105.079.036.079.079.023.079.052.079.066.059.084.131.066.131.106.131.073.047.073.105.035.105.079.105.079.035.079.079.035.079.079.079.079.026.079.057.106.163.236.293.236.27.236.311.035.075.079.075.079.035.079.079.035.079.079.079.079.035.079.079.036.079.079.079.12.047.169.105.111.105.138.105.103.059.17.131.146.131.177.131.055.035.055.079.035.079.079.079.079.033.079.073.059.088.131.106.131.056.131.084.047.052.105.052.105.034.105.075.071.09.157.109.157.054.157.077.059.057.131.076.131.056.131.084.047.051.105.051.105.035.105.079c0 .049.05.079.133.079.073 0 .146.035.163.079s.088.079.157.079.141.035.157.079.088.079.157.079.141.035.157.079.095.079.178.079.184.035.227.079a.35.35 0 0 0 .215.079c.075 0 .15.035.167.079.02.051.102.079.236.079s.216.027.236.079.102.079.236.079.216.027.236.079.104.079.257.079c.125 0 .26.033.3.073s.207.082.371.092l.298.019.013-2.272.072-2.31c.032-.021.07-.257.086-.529s.05-.507.078-.525.066-.197.084-.397.054-.377.079-.394.058-.159.073-.317.053-.295.086-.306.059-.125.059-.253c0-.159.025-.243.079-.264s.079-.101.079-.235c0-.147.022-.204.079-.204s.079-.061.079-.236c0-.165.022-.236.072-.236.045 0 .083-.084.102-.222.016-.122.055-.23.086-.241s.056-.088.056-.172c0-.101.027-.153.079-.153s.079-.053.079-.158.026-.157.079-.157.079-.052.079-.157.026-.157.079-.157.079-.052.079-.157.026-.157.079-.157.079-.053.079-.158.027-.157.075-.157c.041 0 .09-.071.109-.157s.056-.157.083-.157.048-.035.048-.079.035-.079.079-.079c.053 0 .079-.052.079-.157s.026-.157.079-.157c.043 0 .079-.036.079-.079s.036-.079.079-.079c.052 0 .079-.052.079-.157s.026-.157.079-.157.079-.053.079-.157-.026-.157-.079-.157c-.043 0-.079-.035-.079-.079s-.035-.079-.079-.079-.079-.035-.079-.079-.035-.079-.079-.079-.079-.035-.079-.079-.035-.079-.079-.079-.079-.035-.079-.079-.036-.079-.079-.079-.079-.035-.079-.079-.035-.079-.079-.079-.079-.023-.079-.052-.059-.066-.131-.084-.131-.066-.131-.106-.047-.073-.105-.073-.105-.035-.105-.079-.025-.079-.056-.079-.092-.036-.135-.079-.124-.079-.18-.079-.101-.035-.101-.079-.035-.079-.079-.079-.079-.022-.079-.048-.071-.064-.157-.083-.158-.068-.158-.109-.052-.075-.126-.075-.139-.035-.156-.079-.087-.079-.157-.079-.141-.035-.158-.079a.13.13 0 0 0-.111-.079c-.044 0-.08-.022-.08-.048s-.071-.064-.157-.083-.157-.056-.157-.082-.093-.063-.207-.081-.219-.066-.235-.106-.097-.073-.183-.073-.163-.024-.173-.054-.112-.069-.227-.088-.241-.065-.279-.104-.151-.07-.25-.07-.18-.021-.18-.047-.124-.064-.276-.085-.289-.059-.306-.085-.158-.062-.315-.08-.298-.053-.314-.077-.211-.06-.433-.078-.404-.052-.404-.074-.23-.057-.512-.078-.524-.057-.539-.081c-.032-.049-2.494-.096-3.45-.066zm23.018 0c-.31.011-.564.04-.564.064s-.253.059-.563.079-.575.056-.591.08-.223.061-.461.082-.433.057-.433.08-.142.058-.315.078-.315.055-.315.077-.118.056-.262.075-.262.058-.262.085-.095.051-.212.051c-.14 0-.222.027-.242.079-.017.044-.095.079-.178.079s-.179.031-.218.07-.162.085-.275.103-.219.056-.236.083-.096.066-.175.086-.144.057-.144.083-.046.047-.101.047a.28.28 0 0 0-.171.07.55.55 0 0 1-.214.106c-.079.02-.144.057-.144.083s-.071.063-.157.082-.157.056-.157.083-.035.048-.079.048-.079.035-.079.079c0 .053-.053.079-.158.079s-.157.027-.157.075c0 .041-.071.09-.157.109s-.157.056-.157.083-.035.048-.079.048-.079.035-.079.079-.035.079-.079.079-.079.035-.079.079c0 .053-.053.079-.157.079s-.158.026-.158.079c0 .043-.035.079-.079.079s-.079.036-.079.079-.035.079-.079.079-.079.035-.079.079-.035.079-.079.079-.079.035-.079.079-.035.079-.079.079-.079.034-.079.075-.071.09-.157.109c-.122.027-.158.063-.158.162 0 .078-.03.127-.079.127s-.079.035-.079.079-.035.079-.079.079-.079.035-.079.079-.036.079-.079.079-.079.035-.079.079-.035.079-.079.079-.079.035-.079.079-.035.079-.079.079-.079.035-.079.079-.035.079-.079.079-.079.035-.079.079-.035.079-.079.079c-.053 0-.079.052-.079.157s-.026.158-.079.158c-.043 0-.079.035-.079.079s-.022.079-.048.079-.064.071-.083.157-.068.157-.109.157-.075.036-.075.079-.035.079-.079.079c-.053 0-.079.052-.079.157s-.026.157-.079.157-.079.053-.079.157-.026.157-.079.157-.079.049-.079.126c0 .069-.035.139-.079.156s-.079.087-.079.157-.035.141-.079.157-.079.096-.079.189c0 .106-.026.159-.079.159s-.079.05-.079.135c0 .074-.035.17-.079.214s-.079.145-.079.227-.035.161-.079.178c-.054.021-.079.105-.079.268 0 .176-.02.238-.079.238s-.079.061-.079.236-.02.236-.079.236-.079.061-.079.232c0 .133-.027.241-.063.253s-.072.168-.085.385c-.013.2-.049.381-.081.401s-.067.221-.078.446-.045.425-.076.444-.065.332-.079.748c-.013.392-.045.713-.07.713s-.046.555-.046 1.234l.053 1.234c.032 0 .053.216.053.545v.545l.299.025c.165.014.308.052.319.085.028.084 3.459.086 3.487.002.012-.036.25-.069.621-.086.345-.016.617-.052.639-.085s.221-.066.446-.077c.277-.014.423-.044.451-.093s.14-.073.332-.073.318-.028.369-.079c.046-.046.174-.079.306-.079.153 0 .237-.026.257-.079s.102-.079.236-.079.216-.027.236-.079c.017-.045.096-.079.185-.079s.163-.024.173-.054.112-.069.227-.088.24-.065.279-.104.115-.07.171-.07.101-.023.101-.052.093-.067.207-.085.219-.066.235-.106.088-.073.161-.073.133-.024.133-.054.041-.07.092-.089.123-.066.161-.103a.28.28 0 0 1 .171-.069c.056 0 .101-.023.101-.051s.057-.066.127-.084.14-.065.156-.106.065-.074.109-.074.08-.023.08-.052.057-.066.127-.083.14-.065.156-.106.065-.074.109-.074.08-.023.08-.052.059-.066.131-.084.131-.066.131-.106.035-.073.079-.073.079-.035.079-.079.025-.079.055-.079.11-.059.177-.131.139-.131.161-.131c.061 0 .867-.826.867-.889 0-.031.035-.056.079-.056s.079-.047.079-.105.035-.105.079-.105.079-.035.079-.079.033-.079.073-.079.088-.059.106-.131.056-.131.084-.131.052-.036.052-.08.033-.093.074-.109.088-.086.106-.156.055-.127.083-.127.052-.035.052-.079.035-.079.079-.079.079-.046.079-.101.036-.137.079-.18.079-.116.079-.161.035-.082.079-.082c.049 0 .079-.05.079-.133 0-.073.035-.146.079-.163s.079-.087.079-.156c0-.077.031-.126.079-.126s.079-.053.079-.157.026-.157.079-.157.079-.055.079-.184.024-.184.079-.184.079-.058.079-.21.022-.21.079-.21.079-.053.079-.158.026-.157.079-.157c.058 0 .079-.061.079-.238 0-.163.025-.247.079-.268s.079-.104.079-.257c0-.132.033-.26.079-.306s.079-.172.079-.292c0-.155.022-.214.079-.214.063 0 .079-.079.079-.394s.016-.394.079-.394.079-.087.079-.473c0-.375.015-.472.075-.472s.078-.155.092-.849c.012-.62.034-.855.082-.87s.066-.193.066-.643-.018-.627-.066-.643-.07-.266-.082-.949l-.017-.927h-.15c-.082 0-.158-.023-.167-.052-.019-.056-2.498-.107-3.469-.07zM10.039 37.303l.014 2.67 3.97.013 3.97.014.032-.118c.017-.065.032-1.274.032-2.685v-2.567l-.773.031c-.469.019-.781.053-.792.087-.029.086-4.403.077-4.432-.01-.016-.048-.286-.07-1.028-.084l-1.007-.019.014 2.67z" fill="#9c89ff"/><path d="M13.833.079c0 .043-.035.079-.079.079s-.079.024-.079.052-.036.052-.079.052-.079.034-.079.075-.071.09-.158.109-.157.068-.157.109-.027.075-.06.075-.113.058-.179.129-.181.144-.255.163-.136.067-.136.107-.026.073-.059.073-.15.094-.262.21-.227.21-.256.21-.053.035-.053.079-.035.079-.079.079-.079.035-.079.079-.035.079-.079.079-.079.035-.079.079-.035.079-.079.079-.079.035-.079.079-.035.079-.079.079-.079.035-.079.079-.035.079-.079.079-.079.035-.079.079-.036.079-.079.079-.079.035-.079.079-.036.079-.079.079-.079.035-.079.079-.035.079-.079.079-.079.025-.079.055-.059.11-.131.177-.131.14-.131.163-.083.121-.184.22-.184.202-.184.231-.056.105-.124.168a.69.69 0 0 0-.164.242c-.022.069-.093.176-.157.236s-.136.167-.157.236-.094.177-.161.239a.62.62 0 0 0-.157.254c-.02.078-.055.142-.078.142s-.058.069-.076.153-.068.166-.109.182-.076.089-.076.162-.022.133-.048.133-.064.071-.083.157-.054.157-.079.157-.06.071-.079.157-.053.157-.076.157-.055.098-.071.218-.051.232-.078.249-.063.124-.081.238-.054.219-.081.236-.066.16-.087.319-.057.301-.08.315-.049.192-.059.394l-.019.367.21.017c.115.009.229.051.252.092.028.051.136.075.332.075.188 0 .318.028.369.079s.175.079.311.079c.172 0 .232.021.232.079s.061.079.231.079c.157 0 .24.025.261.079s.101.079.236.079.216.027.236.079c.017.043.092.079.167.079s.172.035.215.079.148.079.233.079c.102 0 .154.027.154.079s.052.079.152.079c.087 0 .165.034.182.079s.088.079.158.079.141.035.158.079.087.079.157.079.141.035.158.079.09.079.163.079c.083 0 .133.03.133.079 0 .043.036.079.079.079s.079.022.079.048.071.064.157.083.158.068.158.109.035.075.079.075.079.022.079.048.071.064.157.083.158.068.158.109c0 .048.056.075.158.075s.157-.027.157-.075c0-.041.071-.09.158-.109s.157-.056.157-.083.036-.048.079-.048.079-.034.079-.075.071-.09.158-.109.157-.056.157-.083.035-.048.079-.048.079-.035.079-.079c0-.053.053-.079.157-.079s.157-.026.157-.079.053-.079.158-.079.157-.026.157-.079.053-.079.158-.079.158-.026.158-.079.053-.079.157-.079.158-.026.158-.079.052-.079.157-.079.158-.026.158-.079c0-.058.061-.079.236-.079s.236-.02.236-.079.061-.079.236-.079.236-.02.236-.079.061-.079.236-.079.236-.02.236-.079.067-.079.29-.079c.21 0 .299-.022.32-.079s.11-.079.311-.079c.185 0 .295-.025.323-.073s.183-.079.536-.092c.335-.013.501-.04.516-.084.012-.036.055-.066.096-.066.048 0 .074-.057.074-.157 0-.087-.02-.157-.045-.157s-.061-.17-.08-.378-.055-.391-.078-.407-.058-.121-.076-.234-.053-.219-.079-.236-.061-.123-.079-.236-.054-.219-.079-.236-.063-.119-.083-.227-.058-.197-.084-.197-.063-.083-.082-.184-.054-.184-.077-.184-.058-.071-.077-.157-.054-.157-.077-.157-.058-.059-.076-.131-.056-.131-.084-.131-.052-.047-.052-.105-.035-.105-.079-.105c-.049 0-.079-.05-.079-.133 0-.073-.033-.146-.074-.161s-.088-.086-.106-.156-.055-.127-.083-.127-.052-.047-.052-.105-.035-.105-.079-.105-.079-.035-.079-.079-.034-.079-.075-.079-.09-.071-.109-.157-.056-.157-.083-.157-.048-.035-.048-.079-.035-.079-.079-.079-.079-.035-.079-.079-.033-.079-.073-.079-.088-.059-.106-.131-.056-.131-.084-.131-.052-.035-.052-.079-.035-.079-.079-.079a.08.08 0 0 1-.079-.08.13.13 0 0 0-.079-.111c-.043-.017-.079-.063-.079-.103s-.035-.073-.079-.073-.079-.035-.079-.079-.035-.079-.079-.079-.079-.035-.079-.079-.035-.079-.079-.079-.079-.035-.079-.079-.035-.079-.079-.079-.079-.035-.079-.079-.035-.079-.079-.079-.079-.035-.079-.079-.025-.079-.055-.079-.11-.059-.177-.131-.148-.131-.181-.131-.059-.035-.059-.079-.035-.079-.079-.079-.079-.035-.079-.079-.035-.079-.079-.079-.079-.034-.079-.075-.071-.09-.158-.109-.158-.068-.158-.109-.035-.075-.079-.075-.079-.024-.079-.052-.035-.052-.079-.052-.079-.034-.079-.075-.071-.09-.157-.109-.157-.068-.157-.109-.036-.075-.079-.075-.079-.024-.079-.052-.035-.052-.079-.052-.079-.034-.079-.075-.071-.09-.158-.109-.158-.056-.158-.083S14.077 0 13.991 0c-.105 0-.158.026-.158.079z" fill="#c3b7ff"/><path d="M24.129 16.78c-.31.011-.564.04-.564.064s-.253.059-.563.079-.575.056-.591.08-.223.061-.461.082-.433.057-.433.08-.142.058-.315.078-.315.055-.315.077-.118.056-.262.075-.262.058-.262.085-.095.051-.212.051c-.14 0-.222.027-.242.079-.017.044-.095.079-.178.079s-.18.031-.218.07-.162.085-.275.103-.219.056-.236.084-.096.067-.175.086-.144.057-.144.083-.046.047-.101.047-.133.031-.171.07a.55.55 0 0 1-.214.106c-.079.02-.144.057-.144.083s-.071.063-.157.082-.157.056-.157.083-.035.048-.079.048-.079.036-.079.079c0 .053-.053.079-.158.079s-.157.027-.157.075c0 .041-.071.09-.157.109s-.158.056-.158.083-.035.048-.079.048-.079.035-.079.079-.035.079-.079.079-.079.035-.079.079c0 .053-.053.079-.157.079s-.157.026-.157.079c0 .043-.035.079-.079.079s-.079.035-.079.079-.035.079-.079.079-.079.035-.079.079-.035.079-.079.079-.079.035-.079.079-.035.079-.079.079-.079.034-.079.075-.071.09-.158.109c-.122.027-.157.063-.157.162 0 .078-.03.127-.079.127-.043 0-.079.035-.079.079s-.035.079-.079.079-.079.036-.079.079-.035.079-.079.079-.079.035-.079.079-.036.079-.079.079-.079.035-.079.079-.035.079-.079.079-.079.035-.079.079-.035.079-.079.079-.079.035-.079.079-.035.079-.079.079c-.053 0-.079.052-.079.157s-.026.158-.079.158c-.043 0-.079.035-.079.079s-.022.079-.048.079-.064.071-.083.157-.068.158-.109.158-.075.035-.075.079-.035.079-.079.079c-.053 0-.079.052-.079.157s-.026.157-.079.157-.079.052-.079.157-.026.157-.079.157-.079.049-.079.126c0 .069-.035.139-.079.156s-.079.087-.079.157-.035.141-.079.157-.079.096-.079.189c0 .106-.026.159-.079.159s-.079.05-.079.135c0 .074-.036.171-.079.214s-.079.145-.079.227-.034.161-.079.178c-.054.021-.079.105-.079.268 0 .176-.02.238-.079.238s-.079.061-.079.236-.02.236-.079.236-.079.061-.079.232c0 .133-.027.241-.063.253s-.072.168-.085.385c-.013.2-.049.381-.081.401s-.067.221-.078.446-.045.425-.076.444-.065.332-.08.748c-.013.392-.045.713-.07.713s-.046.555-.046 1.234l.053 1.234c.032 0 .052.216.052.545v.545l.299.025c.165.014.308.052.319.085.028.084 3.458.086 3.487.002.012-.036.25-.069.621-.086.345-.016.617-.052.639-.085s.221-.066.446-.077c.277-.014.423-.044.451-.093s.14-.073.332-.073.318-.028.369-.079c.046-.046.174-.079.305-.079.153 0 .237-.026.257-.079s.102-.079.236-.079.216-.027.236-.079c.017-.045.096-.079.185-.079s.163-.024.173-.054.112-.069.227-.088.241-.065.279-.104a.28.28 0 0 1 .171-.07c.056 0 .101-.023.101-.052s.093-.067.207-.085.219-.066.235-.106.088-.073.161-.073.133-.024.133-.054.041-.07.092-.089.123-.066.161-.103a.28.28 0 0 1 .171-.068c.056 0 .101-.023.101-.052s.057-.066.128-.084.14-.065.156-.106.065-.074.109-.074.08-.023.08-.052.057-.066.127-.084.14-.065.156-.106.065-.074.109-.074.08-.023.08-.052.059-.066.131-.084.131-.066.131-.106.035-.073.079-.073.079-.035.079-.079.025-.079.055-.079.11-.059.177-.131.139-.131.161-.131c.061 0 .867-.826.867-.889 0-.031.035-.056.079-.056s.079-.047.079-.105.035-.105.079-.105.079-.035.079-.079.033-.079.073-.079.088-.059.106-.131.056-.131.084-.131.051-.036.051-.08.033-.093.074-.109.088-.086.106-.156.055-.128.083-.128.052-.035.052-.079.035-.079.079-.079.079-.046.079-.101.035-.137.079-.18.079-.116.079-.161.035-.082.079-.082c.049 0 .079-.05.079-.133 0-.073.035-.146.079-.163s.079-.087.079-.156c0-.077.031-.126.079-.126s.079-.053.079-.158.026-.157.079-.157.079-.055.079-.184.024-.184.079-.184.079-.058.079-.21.022-.21.079-.21.079-.053.079-.158.026-.157.079-.157c.058 0 .079-.061.079-.238 0-.163.025-.247.079-.268s.079-.104.079-.257c0-.132.033-.26.079-.306s.079-.172.079-.293c0-.155.022-.214.079-.214.063 0 .079-.079.079-.394s.016-.394.079-.394.079-.088.079-.472c0-.375.016-.472.075-.472s.078-.155.092-.849c.012-.62.035-.855.082-.87s.066-.193.066-.643-.018-.627-.066-.643-.07-.266-.082-.949l-.017-.927h-.15c-.082 0-.158-.023-.167-.052-.019-.056-2.498-.107-3.469-.07z" fill="#8073c5"/></svg>