<svg xmlns="http://www.w3.org/2000/svg" width="108" height="42" fill="none" xmlns:v="https://vecta.io/nano"><g fill-rule="evenodd"><path d="M14.256.081c0 .045-.037.081-.081.081s-.081.024-.081.054-.037.054-.081.054-.081.035-.081.077-.073.093-.163.113-.163.07-.163.113-.028.077-.062.077-.117.06-.185.133-.187.149-.264.168-.14.069-.14.111-.027.075-.06.075-.155.098-.271.217-.235.217-.265.217-.054.037-.054.081-.037.081-.081.081-.081.037-.081.081-.037.081-.081.081-.081.037-.081.081-.037.081-.081.081-.081.037-.081.081-.037.081-.081.081-.081.037-.081.081-.037.081-.081.081-.081.037-.081.081-.037.081-.081.081-.081.037-.081.081-.037.081-.081.081-.081.037-.081.081-.037.081-.081.081-.081.026-.081.057-.061.113-.136.182-.136.145-.136.168-.085.125-.19.227-.19.209-.19.238-.058.108-.128.174a.71.71 0 0 0-.169.25c-.023.072-.096.181-.163.244a.69.69 0 0 0-.163.244c-.023.072-.097.183-.166.247a.64.64 0 0 0-.162.263c-.02.08-.057.146-.081.146s-.06.071-.079.158-.07.172-.113.188-.078.092-.078.167-.022.137-.05.137-.066.073-.086.163-.056.163-.081.163-.062.073-.081.163-.055.163-.078.163-.056.101-.073.225-.053.239-.08.257-.065.128-.083.245-.056.227-.083.244-.068.166-.09.33-.059.31-.082.325-.051.198-.061.407l-.019.379.217.018c.119.01.236.052.26.095.029.052.14.077.343.077.194 0 .328.029.381.081s.18.081.321.081c.177 0 .24.021.24.081s.063.081.238.081c.162 0 .248.026.269.081s.105.081.244.081.223.028.244.081c.017.045.095.081.172.081a.36.36 0 0 1 .222.081c.045.045.153.081.24.081.105 0 .159.028.159.081s.054.081.157.081c.089 0 .17.035.188.081s.09.081.163.081.145.037.163.081.09.081.163.081.145.037.163.081.093.081.168.081c.086 0 .137.03.137.081 0 .045.037.081.081.081s.081.022.081.05.073.066.163.086.163.07.163.113.037.077.081.077.081.022.081.05.073.066.163.086.163.07.163.113c0 .049.058.077.163.077s.163-.028.163-.077c0-.042.073-.093.163-.113s.163-.058.163-.086.037-.05.081-.05.081-.035.081-.077.073-.093.163-.113.163-.058.163-.086.037-.05.081-.05.081-.037.081-.081c0-.054.054-.081.163-.081s.163-.027.163-.081.054-.081.163-.081.163-.027.163-.081.054-.081.163-.081.163-.027.163-.081.054-.081.163-.081.163-.027.163-.081.054-.081.163-.081.163-.027.163-.081c0-.06.063-.081.244-.081s.244-.021.244-.081.063-.081.244-.081.244-.021.244-.081.063-.081.244-.081.244-.021.244-.081.069-.081.3-.081c.217 0 .308-.023.331-.081s.113-.081.321-.081c.191 0 .304-.026.333-.076s.189-.081.554-.095c.346-.013.518-.041.533-.087.012-.037.057-.068.099-.068.049 0 .077-.058.077-.163 0-.089-.021-.163-.046-.163s-.063-.176-.083-.391-.056-.404-.081-.42-.06-.125-.078-.242-.055-.227-.081-.244-.063-.127-.081-.244-.055-.227-.082-.244-.065-.123-.086-.235-.06-.203-.087-.203-.065-.085-.085-.19-.055-.19-.079-.19-.06-.073-.079-.163-.055-.163-.08-.163-.059-.061-.078-.136-.058-.136-.087-.136-.053-.049-.053-.108-.036-.108-.081-.108c-.051 0-.081-.051-.081-.137 0-.076-.034-.15-.076-.167s-.091-.089-.11-.161-.057-.132-.086-.132-.053-.049-.053-.108-.036-.108-.081-.108-.081-.037-.081-.081-.035-.081-.077-.081-.093-.073-.113-.163-.058-.163-.085-.163-.05-.037-.05-.081-.037-.081-.081-.081-.081-.037-.081-.081-.034-.081-.075-.081-.091-.061-.11-.136-.058-.136-.087-.136-.053-.037-.053-.081-.037-.081-.081-.081-.081-.037-.081-.083-.037-.097-.081-.114-.081-.065-.081-.107-.037-.076-.081-.076-.081-.037-.081-.081-.037-.081-.081-.081-.081-.037-.081-.081-.037-.081-.081-.081-.081-.037-.081-.081-.037-.081-.081-.081-.081-.037-.081-.081-.037-.081-.081-.081-.081-.037-.081-.081-.026-.081-.057-.081-.113-.061-.182-.136-.153-.136-.187-.136-.062-.037-.062-.081-.037-.081-.081-.081-.081-.037-.081-.081-.037-.081-.081-.081-.081-.035-.081-.077-.073-.093-.163-.113-.163-.07-.163-.113-.036-.077-.081-.077-.081-.024-.081-.054-.037-.054-.081-.054-.081-.035-.081-.077-.073-.093-.163-.113-.163-.07-.163-.113-.037-.077-.081-.077-.081-.024-.081-.054-.037-.054-.081-.054-.081-.035-.081-.077-.073-.093-.163-.113-.163-.058-.163-.086-.073-.05-.163-.05c-.108 0-.163.027-.163.081zM3.74 10.563c0 .026-.143.063-.318.083l-.318.036-.034.364c-.019.2-.059.372-.089.382-.087.029-.074 2.487.013 2.516.047.016.073.207.086.637.013.435.041.636.095.691.042.042.076.123.076.181 0 .094.041.105.407.105.224 0 .407.021.407.046s.357.06.794.078.809.054.827.081.238.065.489.084.471.055.488.081.188.063.38.082.363.057.379.082.17.064.342.085.312.061.312.089.084.05.186.05.218.032.258.072.167.088.284.106.226.056.243.082.127.063.244.081.227.055.244.081.099.064.181.084.149.061.149.09.074.053.164.053c.096 0 .177.034.195.081s.09.081.163.081.145.037.163.081.09.081.163.081.145.037.163.081.09.081.163.081.146.037.163.081.09.081.161.081c.079 0 .13.032.13.081s.047.081.105.081a.3.3 0 0 1 .183.079c.043.043.143.095.221.114s.142.057.142.084.037.048.081.048.081.037.081.081.037.081.081.081.081.037.081.081.047.081.105.081.141.037.186.081.107.081.139.081.058.037.058.081.037.081.081.081.081.037.081.081.047.081.104.081.141.037.186.081.107.081.139.081.058.037.058.081.037.081.081.081.081.037.081.081.037.081.081.081.081.037.081.081.037.081.081.081.081.037.081.081.037.081.081.081.081.034.081.075c0 .084.226.143.385.102.057-.015.103-.061.103-.102s.037-.075.081-.075.081-.037.081-.081.037-.081.081-.081.081-.037.081-.081.037-.081.081-.081.081-.037.081-.081.037-.081.081-.081.081-.037.081-.081.037-.081.081-.081.081-.037.081-.081.037-.081.081-.081.081-.023.081-.05.073-.066.163-.086.163-.07.163-.113.037-.077.081-.077.081-.037.081-.081.024-.081.054-.081.103-.042.163-.093c.134-.115.153-.489.028-.538-.053-.02-.081-.105-.081-.244s-.028-.223-.081-.244c-.046-.018-.081-.099-.081-.188 0-.103-.028-.157-.081-.157-.059 0-.081-.06-.081-.217s-.023-.217-.081-.217-.081-.054-.081-.163-.027-.163-.081-.163-.081-.054-.081-.163-.027-.163-.081-.163c-.045 0-.081-.048-.081-.108s-.036-.108-.081-.108c-.051 0-.081-.051-.081-.136s-.031-.136-.081-.136c-.045 0-.081-.048-.081-.108s-.036-.108-.081-.108c-.051 0-.081-.051-.081-.136s-.031-.136-.081-.136c-.045 0-.081-.048-.081-.108s-.036-.108-.081-.108c-.051 0-.081-.051-.081-.136s-.031-.136-.081-.136c-.045 0-.081-.037-.081-.081s-.037-.081-.081-.081-.081-.037-.081-.081-.037-.081-.081-.081-.081-.037-.081-.081-.037-.081-.081-.081-.081-.037-.081-.081-.037-.081-.081-.081-.081-.037-.081-.081-.037-.081-.081-.081-.081-.037-.081-.081-.037-.081-.081-.081-.081-.037-.081-.081-.037-.081-.081-.081-.081-.037-.081-.081-.037-.081-.081-.081-.081-.035-.081-.077-.073-.093-.163-.113-.163-.058-.163-.086-.037-.05-.081-.05-.081-.035-.081-.077-.073-.093-.163-.113-.163-.058-.163-.086-.037-.05-.081-.05-.081-.037-.081-.081c0-.051-.051-.081-.137-.081-.075 0-.151-.035-.167-.078s-.101-.094-.188-.113-.158-.057-.158-.085-.035-.05-.077-.05-.111-.034-.152-.075-.152-.092-.248-.113-.173-.06-.173-.088-.062-.05-.137-.05-.151-.037-.168-.081-.098-.081-.184-.081-.189-.037-.234-.081-.155-.081-.244-.081-.195-.033-.235-.072-.179-.087-.31-.104-.252-.055-.27-.083-.163-.063-.323-.078-.306-.052-.325-.083-.225-.065-.458-.076-.44-.048-.461-.08-.316-.072-.687-.09c-.386-.019-.657-.055-.669-.089-.024-.071-2.558-.082-2.558-.011zm18.257.01c-.011.034-.308.07-.723.089-.408.019-.72.057-.742.091s-.228.068-.461.079c-.286.014-.437.045-.466.096s-.143.075-.333.075c-.207 0-.299.023-.321.081s-.105.081-.245.081c-.118 0-.222.025-.233.056s-.116.071-.235.09-.236.067-.26.107-.135.073-.258.073c-.154 0-.214.023-.214.081s-.054.081-.163.081-.163.027-.163.081-.054.081-.163.081-.163.027-.163.081-.054.081-.163.081-.163.027-.163.081-.054.081-.163.081-.163.027-.163.081-.054.081-.163.081-.163.027-.163.081c0 .045-.036.081-.081.081s-.081.037-.081.081c0 .054-.054.081-.163.081-.089 0-.163.024-.163.054s.037.054.081.054.081.048.081.108.036.108.081.108c.051 0 .081.051.081.136s.031.136.081.136c.045 0 .081.037.081.081s.037.081.081.081.081.048.081.108.036.108.081.108.081.037.081.081.037.081.081.081.081.026.081.058.037.095.081.139.081.128.081.186.037.105.081.105.081.026.081.058.037.095.081.139.081.128.081.186.037.104.081.104c.05 0 .081.051.081.136s.031.136.081.136.081.054.081.163.027.163.081.163.081.054.081.163.027.163.081.163.081.054.081.163.027.163.081.163.081.054.081.163.027.163.081.163.081.057.081.19.024.19.081.19.081.06.081.217.023.217.081.217c.045 0 .081.037.081.081s.037.081.081.081.081-.022.081-.05.073-.066.163-.086.163-.058.163-.085.096-.065.213-.083.226-.068.242-.109.101-.075.189-.075.168-.025.178-.055.116-.071.234-.091.248-.067.288-.107.141-.072.226-.072.163-.026.174-.058.128-.072.262-.089.258-.056.278-.085.166-.066.325-.081.304-.048.321-.074.187-.062.379-.082.363-.057.38-.082.236-.062.488-.081.473-.059.492-.088.391-.066.827-.081c.596-.02.792-.044.792-.097 0-.039.032-.103.072-.142.047-.047.085-.29.108-.695.02-.342.06-.631.09-.641.075-.025.075-3.099 0-3.099-.03 0-.054-.07-.054-.155 0-.144-.019-.158-.252-.19-.138-.019-.321-.034-.407-.034s-.155-.024-.155-.054c0-.076-2.315-.074-2.341.003zM1.152 17.328c-.378.012-.664.044-.664.074s-.073.052-.163.052H.163v.325c0 .253-.018.325-.081.325-.071 0-.081.226-.081 1.707l.081 1.707c.068 0 .081.108.081.651s.014.65.081.65.081.09.081.488.015.488.081.488.081.072.081.325.018.325.081.325.081.072.081.325.018.325.081.325.081.063.081.244.021.244.081.244.081.063.081.244.021.244.081.244c.054 0 .081.054.081.163s.027.163.081.163.081.06.081.211c0 .137.028.222.081.242.048.018.081.099.081.195 0 .11.027.164.081.164s.081.051.081.13c0 .071.037.144.081.161s.081.093.081.168c0 .086.03.137.081.137s.081.054.081.163.027.163.081.163c.045 0 .081.048.081.108s.036.108.081.108c.051 0 .081.051.081.136s.031.136.081.136c.045 0 .081.048.081.108s.036.108.081.108.081.037.081.081.024.081.053.081.068.061.087.136.068.136.109.136.075.049.075.108.036.108.081.108.081.037.081.081.037.081.081.081.081.026.081.058.11.168.244.302.244.279.244.321.037.077.081.077.081.037.081.081.037.081.081.081.081.037.081.081.037.081.082.081.124.049.175.108.115.108.142.108.106.061.175.136.151.136.182.136.057.037.057.081.037.081.081.081.081.034.081.075.061.091.136.109.136.058.136.087.049.053.108.053.108.035.108.077.073.093.163.113.163.056.163.08.061.059.136.078.136.058.136.087.049.053.108.053.108.036.108.081c0 .051.051.081.137.081.076 0 .151.037.168.081s.09.081.163.081.145.037.163.081.09.081.163.081.145.037.163.081.098.081.184.081.189.037.234.081a.36.36 0 0 0 .222.081c.078 0 .155.037.172.081.02.053.105.081.244.081s.224.028.244.081.105.081.244.081.224.028.244.081.107.081.266.081c.129 0 .268.034.31.076s.214.084.383.095l.307.019.014-2.346.074-2.385c.033-.021.073-.265.088-.546s.052-.523.081-.542.068-.203.087-.41.056-.389.082-.407.06-.164.076-.327.055-.305.089-.316.061-.129.061-.262c0-.164.026-.251.081-.272s.081-.105.081-.242c0-.152.023-.211.081-.211s.081-.063.081-.244c0-.17.022-.244.074-.244.046 0 .086-.086.105-.229.017-.126.057-.238.088-.248s.058-.09.058-.177c0-.104.028-.158.081-.158s.081-.054.081-.163.027-.163.081-.163.081-.054.081-.163.027-.163.081-.163.081-.054.081-.163.027-.163.081-.163.081-.054.081-.163.028-.163.077-.163c.042 0 .093-.073.113-.163s.058-.163.086-.163.05-.037.05-.081.037-.081.081-.081c.054 0 .081-.054.081-.163s.027-.163.081-.163c.045 0 .081-.037.081-.081s.037-.081.081-.081c.054 0 .081-.054.081-.163s.027-.163.081-.163.081-.054.081-.163-.027-.163-.081-.163c-.045 0-.081-.037-.081-.081s-.037-.081-.081-.081-.081-.037-.081-.081-.037-.081-.081-.081-.081-.037-.081-.081-.037-.081-.081-.081-.081-.036-.081-.081-.037-.081-.081-.081-.081-.037-.081-.081-.037-.081-.081-.081-.081-.024-.081-.053-.061-.068-.136-.087-.136-.068-.136-.11-.049-.075-.108-.075-.108-.036-.108-.081-.026-.081-.058-.081-.095-.037-.139-.081-.128-.081-.186-.081-.104-.037-.104-.081-.037-.081-.081-.081-.081-.022-.081-.05-.073-.066-.163-.086-.163-.07-.163-.113-.054-.077-.13-.077-.144-.037-.161-.081-.09-.081-.163-.081-.146-.037-.163-.081-.068-.081-.114-.081-.083-.023-.083-.05-.073-.066-.163-.086-.163-.058-.163-.085-.096-.065-.213-.083-.226-.068-.242-.109-.101-.075-.189-.075-.168-.025-.178-.055-.116-.071-.234-.091-.248-.067-.288-.107-.156-.072-.258-.072-.186-.022-.186-.049-.128-.067-.285-.088-.299-.061-.316-.088-.164-.064-.325-.083-.308-.055-.324-.08-.218-.062-.447-.081-.417-.054-.417-.076-.238-.059-.529-.08-.541-.059-.557-.083c-.033-.051-2.575-.099-3.563-.068zm23.769 0c-.32.012-.583.041-.583.066s-.262.061-.581.082-.594.058-.61.083-.23.063-.476.085-.447.059-.447.082-.146.06-.325.081-.325.057-.325.08-.122.058-.271.078-.271.059-.271.088-.098.052-.218.052c-.144 0-.229.028-.25.081-.018.046-.098.081-.184.081a.37.37 0 0 0-.225.072c-.04.04-.167.088-.284.107s-.226.058-.244.086-.099.069-.181.089-.148.059-.148.086-.047.048-.105.048-.137.033-.177.072-.139.089-.221.109-.149.059-.149.086-.073.065-.163.085-.163.058-.163.086-.037.05-.081.05-.081.037-.081.081c0 .054-.054.081-.163.081s-.163.028-.163.077c0 .042-.073.093-.163.113s-.163.058-.163.086-.037.05-.081.05-.081.037-.081.081-.037.081-.081.081-.081.037-.081.081c0 .054-.054.081-.163.081s-.163.027-.163.081c0 .045-.037.081-.081.081s-.081.037-.081.081-.037.081-.081.081-.081.037-.081.081-.037.081-.081.081-.081.037-.081.081-.037.081-.081.081-.081.035-.081.077-.073.093-.163.113c-.126.028-.163.065-.163.167 0 .081-.031.131-.081.131-.045 0-.081.037-.081.081s-.037.081-.081.081-.081.037-.081.081-.037.081-.081.081-.081.037-.081.081-.037.081-.081.081-.081.037-.081.081-.037.081-.081.081-.081.037-.081.081-.037.081-.081.081-.081.037-.081.081-.037.081-.081.081c-.054 0-.081.054-.081.163s-.027.163-.081.163c-.045 0-.081.037-.081.081s-.022.081-.05.081-.066.073-.086.163-.07.163-.113.163-.077.037-.077.081-.037.081-.081.081c-.054 0-.081.054-.081.163s-.027.163-.081.163-.081.054-.081.163-.027.163-.081.163-.081.051-.081.13c0 .071-.037.144-.081.161s-.081.09-.081.163-.037.145-.081.163-.081.1-.081.196c0 .11-.027.164-.081.164s-.081.052-.081.139c0 .077-.037.176-.081.221a.38.38 0 0 0-.081.234c0 .086-.036.167-.081.184-.056.021-.081.108-.081.277 0 .182-.021.246-.081.246s-.081.063-.081.244-.021.244-.081.244-.081.063-.081.239c0 .137-.028.249-.065.261s-.074.174-.088.398c-.013.207-.05.393-.083.414s-.069.228-.081.461-.047.439-.078.459-.067.343-.082.772c-.014.405-.046.736-.072.736s-.047.573-.047 1.274l.054 1.274c.033 0 .054.224.054.562v.563l.309.026c.17.014.318.054.33.088.029.087 3.571.089 3.6.002.012-.037.258-.071.642-.089.356-.017.637-.054.659-.088s.228-.068.461-.08c.286-.014.437-.045.466-.096s.144-.075.343-.075.328-.029.381-.081c.047-.047.18-.081.316-.081.158 0 .244-.026.265-.081s.105-.081.244-.081.224-.028.244-.081c.018-.047.099-.081.191-.081s.168-.025.178-.056.116-.071.234-.09.248-.068.288-.107.119-.072.177-.072.104-.024.104-.054.096-.069.213-.088.226-.068.242-.109.091-.075.166-.075.137-.025.137-.056.043-.072.095-.092a.57.57 0 0 0 .166-.107.29.29 0 0 1 .176-.071c.058 0 .105-.024.105-.053s.059-.068.132-.086.145-.067.161-.109a.13.13 0 0 1 .112-.076c.046 0 .083-.024.083-.053s.059-.068.132-.086.145-.067.161-.109a.13.13 0 0 1 .112-.076c.046 0 .083-.024.083-.053s.061-.069.136-.087.136-.068.136-.109.037-.075.081-.075.081-.037.081-.081.026-.081.057-.081.113-.061.182-.136.144-.136.166-.136c.063 0 .895-.853.895-.918 0-.032.037-.058.081-.058s.081-.048.081-.108.036-.108.081-.108.081-.037.081-.081.034-.081.075-.081.091-.061.109-.135.058-.136.087-.136.053-.037.053-.083a.13.13 0 0 1 .076-.112c.042-.016.091-.089.109-.161s.057-.132.086-.132.053-.037.053-.081.037-.081.081-.081.081-.047.081-.105.037-.141.081-.186.081-.12.081-.167.037-.085.081-.085c.051 0 .081-.051.081-.137 0-.075.037-.151.081-.168s.081-.09.081-.161c0-.079.032-.13.081-.13s.081-.054.081-.163.027-.163.081-.163.081-.057.081-.19.024-.19.081-.19.081-.06.081-.217.023-.217.081-.217.081-.054.081-.163.027-.163.081-.163c.06 0 .081-.063.081-.246 0-.168.026-.256.081-.277s.081-.107.081-.265c0-.136.034-.268.081-.316s.081-.178.081-.302c0-.16.022-.221.081-.221.065 0 .081-.081.081-.406s.016-.407.081-.407.081-.09.081-.488c0-.387.016-.488.078-.488s.081-.16.095-.876c.013-.64.036-.882.085-.899s.068-.199.068-.664-.019-.648-.068-.664-.072-.275-.085-.98l-.017-.958h-.155c-.085 0-.163-.024-.173-.053-.02-.058-2.579-.11-3.582-.073zM10.366 38.521l.014 2.757 4.1.014 4.1.014.033-.122c.018-.067.033-1.315.034-2.773l.001-2.651-.799.032c-.484.02-.806.055-.818.09-.03.089-4.547.079-4.577-.01-.017-.05-.295-.073-1.062-.087l-1.04-.02.014 2.757z" fill="#fbfaff"/><path d="M14.286.081c0 .045-.037.081-.081.081s-.081.024-.081.054-.037.054-.081.054-.081.035-.081.077-.073.093-.163.113-.163.07-.163.113-.028.077-.062.077-.117.06-.185.133-.187.149-.264.168-.14.069-.14.111-.027.075-.061.075-.155.098-.271.217-.235.217-.265.217-.054.037-.054.081-.037.081-.081.081-.081.037-.081.081-.037.081-.081.081-.081.037-.081.081-.037.081-.081.081-.081.037-.081.081-.037.081-.081.081-.081.037-.081.081-.037.081-.081.081-.081.037-.081.081-.037.081-.081.081-.081.037-.081.081-.037.081-.081.081-.081.037-.081.081-.037.081-.081.081-.081.026-.081.057-.061.113-.135.182-.136.145-.136.168-.085.125-.19.227-.19.209-.19.238-.058.108-.128.174-.146.178-.169.25-.096.181-.163.244a.69.69 0 0 0-.163.244c-.023.072-.097.183-.166.247a.64.64 0 0 0-.162.263c-.02.08-.057.146-.081.146s-.06.071-.079.158-.07.172-.113.188-.078.092-.078.167-.022.137-.05.137-.066.073-.086.163-.056.163-.081.163-.062.073-.081.163-.055.163-.079.163-.056.101-.073.225-.053.239-.08.257-.065.128-.083.245-.056.227-.083.244-.068.166-.09.33-.059.31-.082.325-.051.198-.061.407l-.019.379.217.018c.119.01.236.052.26.095.029.052.14.077.343.077.194 0 .328.029.381.081s.18.081.321.081c.177 0 .24.021.24.081s.063.081.238.081c.162 0 .248.026.269.081s.105.081.244.081.223.028.244.081c.017.045.095.081.172.081a.36.36 0 0 1 .222.081c.045.045.153.081.24.081.105 0 .159.027.159.081s.053.081.157.081c.089 0 .17.035.188.081s.09.081.163.081.145.037.163.081.09.081.163.081.146.037.163.081.093.081.168.081c.086 0 .137.03.137.081 0 .045.037.081.081.081s.081.023.081.05.073.066.163.086.163.07.163.113.037.077.081.077.081.022.081.05.073.066.163.086.163.07.163.113c0 .05.058.077.163.077s.163-.027.163-.077c0-.042.073-.093.163-.113s.163-.058.163-.086.037-.05.081-.05.081-.035.081-.077.073-.093.163-.113.163-.058.163-.086.037-.05.081-.05.081-.037.081-.081c0-.054.054-.081.163-.081s.163-.027.163-.081.054-.081.163-.081.163-.027.163-.081.054-.081.163-.081.163-.027.163-.081.054-.081.163-.081.163-.027.163-.081.054-.081.163-.081.163-.027.163-.081c0-.06.063-.081.244-.081s.244-.021.244-.081.063-.081.244-.081.244-.021.244-.081.063-.081.244-.081.244-.021.244-.081.069-.081.3-.081c.216 0 .308-.023.331-.081s.113-.081.321-.081c.191 0 .304-.026.333-.076s.189-.081.554-.095c.346-.013.518-.041.533-.087.012-.037.057-.068.099-.068.049 0 .077-.058.077-.163 0-.089-.021-.163-.046-.163s-.063-.176-.083-.391-.056-.404-.081-.42-.059-.125-.078-.242-.055-.227-.081-.244-.063-.127-.081-.244-.055-.227-.082-.244-.065-.123-.086-.235-.059-.203-.087-.203-.065-.085-.085-.19-.055-.19-.079-.19-.06-.073-.08-.163-.055-.163-.08-.163-.059-.061-.078-.136-.058-.136-.087-.136-.053-.049-.053-.108-.036-.108-.081-.108c-.051 0-.081-.051-.081-.137 0-.076-.034-.15-.076-.167s-.091-.089-.109-.161-.057-.132-.086-.132-.053-.049-.053-.108-.036-.108-.081-.108-.081-.037-.081-.081-.035-.081-.077-.081-.093-.073-.113-.163-.058-.163-.086-.163-.05-.037-.05-.081-.037-.081-.081-.081-.081-.037-.081-.081-.034-.081-.075-.081-.091-.061-.109-.136-.058-.136-.087-.136-.053-.037-.053-.081-.037-.081-.081-.081-.081-.037-.081-.083-.037-.097-.081-.114-.081-.065-.081-.107-.037-.076-.081-.076-.081-.037-.081-.081-.037-.081-.081-.081-.081-.037-.081-.081-.037-.081-.081-.081-.081-.037-.081-.081-.037-.081-.081-.081-.081-.037-.081-.081-.037-.081-.081-.081-.081-.037-.081-.081-.026-.081-.057-.081-.113-.061-.182-.136-.153-.136-.187-.136-.061-.037-.061-.081-.037-.081-.081-.081-.081-.037-.081-.081-.037-.081-.081-.081-.081-.035-.081-.077-.073-.093-.163-.113-.163-.07-.163-.113-.037-.077-.081-.077-.081-.024-.081-.054-.037-.054-.081-.054-.081-.035-.081-.077-.073-.093-.163-.113-.163-.07-.163-.113-.037-.077-.081-.077-.081-.024-.081-.054-.037-.054-.081-.054-.081-.035-.081-.077-.073-.093-.163-.113-.163-.058-.163-.086-.073-.05-.163-.05c-.108 0-.163.027-.163.081z" fill="#c3b7ff"/><path d="M24.919 17.328c-.321.012-.583.042-.583.066s-.261.061-.581.082-.594.058-.61.083-.23.063-.476.084-.447.059-.447.082-.146.06-.325.081-.325.057-.325.08-.122.058-.271.078-.271.059-.271.088-.098.052-.218.052c-.144 0-.229.028-.25.081-.018.046-.098.081-.184.081s-.185.032-.225.072-.168.088-.284.107-.226.058-.244.086-.099.069-.181.089-.149.059-.149.086-.047.048-.105.048-.137.032-.177.072-.139.089-.221.109-.149.059-.149.086-.073.065-.163.085-.163.058-.163.085-.037.05-.081.05-.081.037-.081.081c0 .054-.054.081-.163.081s-.163.028-.163.077c0 .042-.073.093-.163.113s-.163.058-.163.086-.037.05-.081.05-.081.037-.081.081-.037.081-.081.081-.081.037-.081.081c0 .054-.054.081-.163.081s-.163.027-.163.081c0 .045-.037.081-.081.081s-.081.037-.081.081-.037.081-.081.081-.081.037-.081.081-.037.081-.081.081-.081.037-.081.081-.037.081-.081.081-.081.035-.081.077-.073.093-.163.113c-.126.028-.163.065-.163.167 0 .081-.031.131-.081.131-.045 0-.081.037-.081.081s-.037.081-.081.081-.081.037-.081.081-.037.081-.081.081-.081.037-.081.081-.037.081-.081.081-.081.037-.081.081-.037.081-.081.081-.081.037-.081.081-.037.081-.081.081-.081.037-.081.081-.037.081-.081.081c-.054 0-.081.054-.081.163s-.027.163-.081.163c-.045 0-.081.037-.081.081s-.022.081-.05.081-.066.073-.086.163-.07.163-.113.163-.077.037-.077.081-.037.081-.081.081c-.054 0-.081.054-.081.163s-.027.163-.081.163-.081.054-.081.163-.027.163-.081.163-.081.051-.081.13c0 .071-.037.144-.081.161s-.081.09-.081.163-.037.145-.081.163-.081.099-.081.195c0 .11-.027.164-.081.164s-.081.052-.081.139c0 .077-.037.176-.081.221s-.081.15-.081.234-.036.167-.081.184c-.056.021-.081.109-.081.277 0 .182-.021.246-.081.246s-.081.063-.081.244-.021.244-.081.244-.081.063-.081.239c0 .137-.028.248-.064.261s-.074.174-.088.398c-.013.207-.05.393-.083.414s-.069.228-.081.461-.047.439-.078.459-.067.343-.082.773c-.014.405-.046.736-.072.736s-.047.573-.047 1.274l.054 1.274c.033 0 .054.224.054.562v.563l.309.026c.17.014.318.054.33.088.029.087 3.571.089 3.6.002.012-.037.259-.071.642-.089.356-.017.637-.054.659-.088s.228-.068.461-.08c.286-.014.437-.045.466-.096s.144-.075.343-.075.328-.029.381-.081c.047-.047.18-.081.316-.081.158 0 .244-.026.265-.081s.105-.081.244-.081.224-.028.244-.081c.018-.047.099-.081.191-.081s.168-.025.178-.056.116-.071.234-.09.248-.067.288-.107.119-.072.177-.072.105-.024.105-.054.096-.069.213-.088.226-.068.242-.109.09-.075.166-.075.137-.025.137-.056.043-.072.095-.092a.57.57 0 0 0 .166-.107.29.29 0 0 1 .176-.071c.057 0 .105-.024.105-.053s.059-.068.132-.086.145-.067.161-.109a.13.13 0 0 1 .112-.076c.046 0 .083-.024.083-.053s.059-.068.132-.086.145-.067.161-.109a.13.13 0 0 1 .112-.076c.046 0 .083-.024.083-.053s.061-.069.136-.087.136-.068.136-.109.037-.076.081-.076.081-.037.081-.081.026-.081.057-.081.113-.061.182-.136.144-.136.166-.136c.063 0 .895-.853.895-.918 0-.032.037-.058.081-.058s.081-.048.081-.108.036-.108.081-.108.081-.037.081-.081.034-.081.075-.081.091-.061.11-.136.058-.136.087-.136.053-.037.053-.083a.13.13 0 0 1 .076-.112c.042-.016.091-.088.109-.161s.057-.132.086-.132.053-.037.053-.081.037-.081.081-.081.081-.047.081-.104.037-.141.081-.186.081-.12.081-.167.037-.085.081-.085c.051 0 .081-.051.081-.137 0-.076.037-.151.081-.168s.081-.09.081-.161c0-.079.032-.13.081-.13s.081-.054.081-.163.027-.163.081-.163.081-.057.081-.19.024-.19.081-.19.081-.06.081-.217.023-.217.081-.217.081-.054.081-.163.027-.163.081-.163c.06 0 .081-.064.081-.246 0-.168.026-.255.081-.277s.081-.107.081-.265c0-.136.034-.268.081-.316s.081-.178.081-.302c0-.16.022-.221.081-.221.065 0 .081-.081.081-.407s.016-.407.081-.407.081-.09.081-.488c0-.387.016-.488.078-.488s.081-.16.095-.876c.013-.64.036-.883.085-.899s.068-.199.068-.664-.019-.648-.068-.664-.072-.275-.085-.98l-.017-.958h-.155c-.085 0-.163-.024-.173-.054-.019-.058-2.579-.11-3.582-.073z" fill="#8073c5"/></g><path stroke="#8073c5" d="M43.5 20.5h64v18h-64z"/><path d="M47.348 15.168c2.758 0 4.634-2.072 4.634-4.83s-1.876-4.83-4.634-4.83c-2.772 0-4.634 2.072-4.634 4.83s1.862 4.83 4.634 4.83zm0-1.036c-2.1 0-3.43-1.624-3.43-3.794 0-2.184 1.33-3.794 3.43-3.794 2.086 0 3.43 1.61 3.43 3.794 0 2.17-1.344 3.794-3.43 3.794zM61.273 15l-2.52-3.808c1.274-.112 2.422-1.036 2.422-2.716 0-1.722-1.218-2.814-2.926-2.814h-3.752V15h1.162v-3.71h1.862l2.38 3.71h1.372zm-3.164-4.732h-2.45v-3.57h2.45c1.106 0 1.862.728 1.862 1.778s-.756 1.792-1.862 1.792zm10.03 4.914c1.526 0 2.8-.644 3.668-1.61v-3.374h-4.368v1.036h3.206v1.904c-.462.462-1.386 1.008-2.506 1.008-2.044 0-3.598-1.596-3.598-3.808 0-2.226 1.554-3.794 3.598-3.794 1.12 0 2.114.532 2.702 1.288l.924-.574c-.826-1.022-1.974-1.75-3.626-1.75-2.66 0-4.802 1.932-4.802 4.83s2.142 4.844 4.802 4.844zM82.348 15l-3.766-9.338H77.14L73.388 15h1.33l.826-2.072h4.648L81.018 15h1.33zm-2.506-3.108H75.88l1.988-5.026 1.974 5.026zM91.997 15V5.662h-1.162v7.294l-5.376-7.294h-1.19V15h1.162V7.552L90.877 15h1.12zm4.046 0V5.662h-1.162V15h1.162zm7.312.168c1.652 0 2.772-.784 3.556-1.848l-.994-.546c-.532.798-1.498 1.358-2.562 1.358-2.044 0-3.598-1.582-3.598-3.794 0-2.226 1.554-3.794 3.598-3.794a3.15 3.15 0 0 1 2.562 1.358l.98-.546c-.742-1.05-1.89-1.848-3.542-1.848-2.688 0-4.802 1.96-4.802 4.83s2.114 4.83 4.802 4.83z" fill="#fff"/><path d="M52.116 34.168c2.52 0 3.444-1.386 3.444-2.744 0-3.486-5.53-2.282-5.53-4.382 0-.882.798-1.484 1.918-1.484 1.022 0 2.002.35 2.702 1.12l.7-.854c-.784-.826-1.89-1.302-3.318-1.302-1.834 0-3.206 1.05-3.206 2.59 0 3.332 5.53 2.002 5.53 4.41 0 .714-.532 1.61-2.198 1.61-1.316 0-2.324-.644-2.94-1.33l-.686.882c.77.868 1.96 1.484 3.584 1.484zM71.099 34v-9.338h-1.162v4.018h-5.46v-4.018h-1.162V34h1.162v-4.284h5.46V34h1.162zm12.459.168c2.758 0 4.634-2.072 4.634-4.83s-1.876-4.83-4.634-4.83c-2.772 0-4.634 2.072-4.634 4.83s1.862 4.83 4.634 4.83zm0-1.036c-2.1 0-3.43-1.624-3.43-3.794 0-2.184 1.33-3.794 3.43-3.794 2.086 0 3.43 1.61 3.43 3.794 0 2.17-1.344 3.794-3.43 3.794zM97.189 34v-3.71h2.59c1.848 0 2.926-1.288 2.926-2.814s-1.05-2.814-2.926-2.814h-3.752V34h1.162zm2.45-4.746h-2.45v-3.556h2.45c1.106 0 1.862.728 1.862 1.778s-.756 1.778-1.862 1.778z" fill="#8073c5"/></svg>