<svg xmlns="http://www.w3.org/2000/svg" width="34" height="36" fill="none" xmlns:v="https://vecta.io/nano"><path d="M20.2 23.587v-4.92h2.025v3.76l3.294 1.88-1.012 1.733-4.306-2.453zM26.275 6L24.25 4l-2.025 2L20.2 4l-2.025 2-2.025-2-2.025 2L12.1 4l-2.025 2L8.05 4 6.025 6 4 4v26.667l2.025-2 2.025 2 2.025-2 2.025 2 2.133-2.107c.189.253.405.48.634.707C16.636 31.013 19.039 32 21.55 32c5.211 0 9.45-4.173 9.45-9.333 0-2.44-.972-4.787-2.7-6.533V4l-2.025 2zm-11.34 10c-.81.76-1.444 1.667-1.931 2.667H8.05V16h6.885zm-2.741 5.333c-.095.44-.095.88-.095 1.333s0 .893.095 1.333H8.05v-2.667h4.144zm12.056-8H8.05v-2.667h16.2v2.667zm3.848 9.333a6.75 6.75 0 0 1-.473 2.48c-.351.773-.837 1.52-1.445 2.093-.58.6-1.336 1.08-2.119 1.427a6.99 6.99 0 0 1-2.511.467c-3.618 0-6.548-2.893-6.548-6.467 0-1.72.689-3.333 1.917-4.573 1.256-1.213 2.889-1.893 4.631-1.893 3.604 0 6.547 2.893 6.547 6.467z" fill="#edc679"/></svg>