<svg xmlns="http://www.w3.org/2000/svg" width="34" height="36" fill="none" xmlns:v="https://vecta.io/nano"><path d="M20.4 5c-3.076 0-6.027 1.217-8.202 3.385S8.8 13.491 8.8 16.556s1.222 6.004 3.398 8.171 5.126 3.384 8.202 3.384 6.027-1.217 8.202-3.384S32 19.62 32 16.556s-1.222-6.004-3.398-8.171S23.477 5 20.4 5zM7.249 10.518C4.566 12.713 3 15.992 3 19.444c0 3.065 1.222 6.004 3.398 8.171S11.524 31 14.6 31c.928 0 1.842-.116 2.726-.332-2.552-.563-4.901-1.834-6.83-3.582C7.669 25.583 5.9 22.637 5.9 19.444c0-.433.043-.852.101-1.286L5.9 16.556a14.28 14.28 0 0 1 1.348-6.038zm19.082.376l2.044 2.051-9.425 9.389-5.495-5.474 2.059-2.051 3.436 3.438" fill="#80d079"/></svg>