<svg xmlns="http://www.w3.org/2000/svg" width="190" height="73" fill="none" xmlns:v="https://vecta.io/nano"><g fill-rule="evenodd"><path d="M25.08.143c0 .079-.064.143-.143.143s-.143.043-.143.095-.064.095-.143.095-.143.061-.143.136-.129.164-.286.198-.286.124-.286.198-.049.136-.108.136-.206.106-.326.235-.328.262-.464.296-.247.122-.247.195-.048.133-.107.133-.273.172-.477.381-.413.381-.466.381-.096.064-.096.143-.064.143-.143.143-.143.064-.143.143-.064.143-.143.143-.143.064-.143.143-.064.143-.143.143-.143.064-.143.143-.064.143-.143.143-.143.064-.143.143-.064.143-.143.143-.143.064-.143.143-.064.143-.143.143-.143.064-.143.143-.064.143-.143.143-.143.064-.143.143-.064.143-.143.143-.143.045-.143.1-.107.199-.238.321-.238.255-.238.296-.15.221-.334.399-.334.367-.334.419-.101.19-.225.305-.258.313-.297.439-.168.319-.286.429a1.21 1.21 0 0 0-.286.429c-.04.126-.171.321-.293.434s-.25.32-.285.462-.099.257-.142.257-.105.125-.139.278-.123.302-.198.331-.137.161-.137.294-.04.241-.088.241-.116.129-.151.286-.099.286-.143.286-.109.129-.143.286-.097.286-.138.286-.099.178-.128.395-.093.421-.141.453-.114.226-.147.431-.098.399-.146.429-.119.291-.158.58-.104.546-.145.572-.089.348-.108.715l-.034.668.381.031c.21.017.416.092.458.167.051.092.246.136.603.136.341 0 .577.05.67.143.084.084.317.143.565.143.312 0 .422.037.422.143s.11.143.419.143c.284 0 .437.046.474.143s.184.143.429.143.393.049.429.143c.03.079.166.143.303.143s.313.064.391.143.269.143.422.143c.185 0 .279.049.279.143s.094.143.276.143c.157 0 .299.061.331.143s.159.143.286.143.256.064.286.143.159.143.286.143.256.064.286.143.164.143.296.143c.151 0 .241.054.241.143 0 .079.064.143.143.143s.143.04.143.088.129.116.286.151.286.124.286.198.064.136.143.136.143.04.143.088.129.116.286.151.286.124.286.198c0 .087.102.136.286.136s.286-.049.286-.136c0-.075.129-.164.286-.198s.286-.102.286-.151.064-.088.143-.088.143-.061.143-.136.129-.164.286-.198.286-.102.286-.151.064-.088.143-.088.143-.064.143-.143c0-.095.095-.143.286-.143s.286-.048.286-.143.095-.143.286-.143.286-.048.286-.143.095-.143.286-.143.286-.048.286-.143.095-.143.286-.143.286-.048.286-.143.095-.143.286-.143.286-.048.286-.143c0-.106.111-.143.429-.143s.429-.037.429-.143.111-.143.429-.143.429-.037.429-.143.111-.143.429-.143.429-.037.429-.143.122-.143.527-.143c.381 0 .543-.04.582-.143s.2-.143.564-.143c.337 0 .535-.045.586-.133.055-.095.333-.143.974-.167.608-.023.911-.072.938-.153.022-.066.101-.119.175-.119.087 0 .135-.103.135-.286 0-.157-.037-.286-.082-.286s-.11-.309-.146-.687-.099-.711-.142-.739-.105-.22-.137-.426-.097-.399-.143-.429-.11-.224-.143-.429-.097-.399-.144-.429-.115-.216-.151-.413-.105-.358-.152-.358-.115-.15-.149-.334-.097-.334-.14-.334-.105-.129-.14-.286-.098-.286-.14-.286-.105-.107-.137-.238-.102-.238-.153-.238-.094-.086-.094-.191-.064-.191-.143-.191c-.089 0-.143-.09-.143-.241 0-.133-.061-.265-.135-.293s-.161-.156-.193-.283-.1-.232-.152-.232-.093-.086-.093-.191-.064-.191-.143-.191-.143-.064-.143-.143-.061-.143-.136-.143-.164-.129-.198-.286-.102-.286-.151-.286-.088-.064-.088-.143-.064-.143-.143-.143-.143-.064-.143-.143-.06-.143-.133-.143-.16-.107-.192-.238-.102-.238-.153-.238-.094-.064-.094-.143-.064-.143-.143-.143-.143-.066-.143-.146-.064-.171-.143-.201-.143-.115-.143-.188-.064-.133-.143-.133-.143-.064-.143-.143-.064-.143-.143-.143-.143-.064-.143-.143-.064-.143-.143-.143-.143-.064-.143-.143-.064-.143-.143-.143-.143-.064-.143-.143-.064-.143-.143-.143-.143-.064-.143-.143-.045-.143-.1-.143-.199-.107-.321-.238-.27-.238-.329-.238-.108-.064-.108-.143-.064-.143-.143-.143-.143-.064-.143-.143-.064-.143-.143-.143-.143-.061-.143-.136-.129-.164-.286-.198-.286-.124-.286-.198-.064-.136-.143-.136-.143-.043-.143-.095-.064-.095-.143-.095-.143-.061-.143-.136-.129-.164-.286-.198-.286-.124-.286-.198-.064-.136-.143-.136-.143-.043-.143-.095-.064-.095-.143-.095-.143-.061-.143-.136-.129-.164-.286-.198-.286-.102-.286-.151S25.524 0 25.366 0c-.191 0-.286.048-.286.143zm-18.5 18.44c0 .046-.251.111-.559.146l-.559.063-.06.64c-.033.352-.103.654-.156.672-.152.051-.13 4.376.022 4.427.083.028.129.365.152 1.12.023.766.072 1.12.167 1.215a.52.52 0 0 1 .134.318c0 .165.072.184.715.184.393 0 .715.036.715.081s.629.106 1.397.137 1.423.096 1.454.143.419.114.861.147.828.098.858.143.331.111.669.145.638.1.668.145.3.112.601.149.548.107.548.156.147.088.327.088.384.057.454.127.295.154.5.187.398.098.428.145.224.11.429.143.399.097.429.143.174.113.318.148.262.106.262.158.13.093.289.093c.169 0 .312.059.344.143.03.079.159.143.286.143s.256.064.286.143.159.143.286.143.256.064.286.143.159.143.286.143.256.064.286.143.158.143.283.143c.139 0 .228.056.228.143 0 .079.083.143.184.143a.53.53 0 0 1 .322.138.99.99 0 0 0 .388.201c.137.035.25.101.25.148s.064.085.143.085.143.064.143.143.064.143.143.143.143.064.143.143.083.143.184.143a.54.54 0 0 1 .327.143c.079.079.189.143.245.143s.102.064.102.143.064.143.143.143.143.064.143.143.083.143.184.143a.54.54 0 0 1 .327.143c.079.079.189.143.245.143s.102.064.102.143.064.143.143.143.143.064.143.143.064.143.143.143.143.064.143.143.064.143.143.143.143.064.143.143.064.143.143.143.143.059.143.132c0 .147.398.252.677.179.1-.026.181-.107.181-.179s.064-.132.143-.132.143-.064.143-.143.064-.143.143-.143.143-.064.143-.143.064-.143.143-.143.143-.064.143-.143.064-.143.143-.143.143-.064.143-.143.064-.143.143-.143.143-.064.143-.143.064-.143.143-.143.143-.039.143-.088.129-.116.286-.151.286-.124.286-.198.064-.136.143-.136.143-.064.143-.143.042-.143.094-.143.18-.074.286-.164c.236-.202.27-.861.049-.946-.094-.036-.143-.185-.143-.429s-.049-.393-.143-.429c-.081-.031-.143-.173-.143-.331 0-.182-.049-.276-.143-.276-.103 0-.143-.106-.143-.381s-.04-.381-.143-.381c-.095 0-.143-.095-.143-.286s-.048-.286-.143-.286-.143-.095-.143-.286-.048-.286-.143-.286c-.079 0-.143-.085-.143-.191s-.064-.191-.143-.191c-.089 0-.143-.09-.143-.238s-.054-.238-.143-.238c-.079 0-.143-.085-.143-.191s-.064-.191-.143-.191c-.089 0-.143-.09-.143-.238s-.054-.238-.143-.238c-.079 0-.143-.085-.143-.191s-.064-.191-.143-.191c-.089 0-.143-.09-.143-.238s-.054-.238-.143-.238c-.079 0-.143-.064-.143-.143s-.064-.143-.143-.143-.143-.064-.143-.143-.064-.143-.143-.143-.143-.064-.143-.143-.064-.143-.143-.143-.143-.064-.143-.143-.064-.143-.143-.143-.143-.064-.143-.143-.064-.143-.143-.143-.143-.064-.143-.143-.064-.143-.143-.143-.143-.064-.143-.143-.064-.143-.143-.143-.143-.064-.143-.143-.064-.143-.143-.143-.143-.061-.143-.136-.129-.164-.286-.198-.286-.102-.286-.151-.064-.088-.143-.088-.143-.061-.143-.136-.129-.164-.286-.198-.286-.102-.286-.151-.064-.088-.143-.088-.143-.064-.143-.143c0-.089-.09-.143-.241-.143-.133 0-.265-.062-.294-.137s-.178-.165-.331-.198-.278-.101-.278-.149-.061-.088-.136-.088a.46.46 0 0 1-.268-.131c-.072-.072-.268-.162-.436-.198s-.305-.106-.305-.155-.109-.088-.241-.088-.266-.064-.296-.143-.173-.143-.324-.143a.67.67 0 0 1-.412-.143c-.079-.079-.272-.143-.429-.143s-.343-.057-.414-.127-.315-.153-.545-.184-.444-.096-.475-.145-.288-.111-.569-.137-.539-.092-.572-.145-.396-.114-.805-.134-.774-.084-.811-.14-.556-.127-1.209-.158c-.68-.033-1.156-.096-1.176-.157-.042-.125-4.5-.144-4.5-.019zm32.119.017c-.02.059-.542.124-1.271.157-.718.033-1.266.1-1.305.16s-.401.119-.811.139c-.503.025-.768.08-.82.169s-.251.132-.586.132c-.365 0-.525.041-.564.143-.036.094-.185.143-.431.143-.207 0-.391.044-.409.098s-.204.125-.413.157-.415.118-.457.189-.238.129-.453.129c-.271 0-.377.04-.377.143 0 .095-.095.143-.286.143s-.286.048-.286.143-.095.143-.286.143-.286.048-.286.143-.095.143-.286.143-.286.048-.286.143-.095.143-.286.143-.286.048-.286.143-.095.143-.286.143-.286.048-.286.143c0 .079-.064.143-.143.143s-.143.064-.143.143c0 .095-.095.143-.286.143-.157 0-.286.043-.286.095s.064.095.143.095.143.085.143.191.064.191.143.191c.089 0 .143.09.143.238s.054.238.143.238c.079 0 .143.064.143.143s.064.143.143.143.143.085.143.191.064.191.143.191.143.064.143.143.064.143.143.143.143.046.143.102.064.167.143.245a.54.54 0 0 1 .143.327c0 .101.064.184.143.184s.143.046.143.102.064.167.143.245a.54.54 0 0 1 .143.327c0 .101.064.184.143.184.089 0 .143.09.143.238s.054.238.143.238c.095 0 .143.095.143.286s.048.286.143.286.143.095.143.286.048.286.143.286.143.095.143.286.048.286.143.286.143.095.143.286.048.286.143.286.143.101.143.334.043.334.143.334.143.106.143.381.04.381.143.381c.079 0 .143.064.143.143s.064.143.143.143.143-.04.143-.088.129-.116.286-.151.286-.102.286-.149.169-.114.376-.147.398-.119.426-.192.177-.132.332-.132.296-.044.314-.098.203-.125.412-.159.437-.119.507-.188.249-.127.398-.127.286-.046.305-.102.226-.127.461-.157.455-.098.488-.15.291-.116.572-.142.535-.085.564-.13.33-.11.668-.144.639-.1.669-.145.416-.11.858-.143.832-.103.866-.155.688-.116 1.454-.142c1.05-.036 1.393-.078 1.393-.17 0-.068.057-.18.127-.25.083-.083.149-.511.19-1.222.035-.602.106-1.11.159-1.127.131-.044.132-5.452.001-5.452-.053 0-.095-.123-.095-.273 0-.253-.033-.278-.442-.334-.243-.033-.565-.061-.715-.061s-.273-.043-.273-.095c0-.134-4.073-.13-4.118.005zM2.026 30.485c-.665.021-1.168.077-1.168.13s-.129.092-.286.092H.286v.572c0 .445-.032.572-.143.572-.124 0-.143.397-.143 3.004l.143 3.004c.119 0 .143.191.143 1.144s.024 1.144.143 1.144.143.159.143.858.027.858.143.858c.111 0 .143.127.143.572s.032.572.143.572.143.127.143.572.032.572.143.572c.106 0 .143.111.143.429s.037.429.143.429.143.111.143.429.037.429.143.429c.095 0 .143.095.143.286s.048.286.143.286c.103 0 .143.105.143.371 0 .242.05.39.143.426.084.032.143.175.143.344 0 .193.047.289.143.289.087 0 .143.089.143.228 0 .125.064.253.143.283s.143.163.143.296c0 .151.054.241.143.241.095 0 .143.095.143.286s.048.286.143.286c.079 0 .143.085.143.191s.064.191.143.191c.089 0 .143.09.143.238s.054.238.143.238c.079 0 .143.085.143.191s.064.191.143.191.143.064.143.143.042.143.094.143.12.107.153.238.12.238.193.238.133.086.133.191.064.191.143.191.143.064.143.143.064.143.143.143.143.046.143.103.193.296.429.532.429.49.429.565.064.136.143.136.143.064.143.143.064.143.143.143.143.064.143.143.065.143.144.143.217.086.307.191.202.191.25.191.186.107.308.238.266.238.321.238.1.064.1.143.064.143.143.143.143.06.143.133.107.16.238.193.238.102.238.153.086.093.191.093.191.061.191.136.129.164.286.198.286.098.286.14.107.104.238.137.238.102.238.153.086.094.191.094.191.064.191.143c0 .09.09.143.241.143.133 0 .266.064.296.143s.159.143.286.143.256.064.286.143.159.143.286.143.256.064.286.143.173.143.324.143a.67.67 0 0 1 .412.143c.079.079.255.143.391.143s.273.064.303.143c.036.094.185.143.429.143s.393.049.429.143.184.143.429.143.393.05.429.143.189.143.467.143c.227 0 .472.06.545.133s.377.148.674.167l.541.034.024-4.128.13-4.196c.059-.038.128-.466.156-.961s.091-.92.142-.954.119-.358.152-.721.098-.685.144-.715.106-.289.133-.575.097-.536.156-.556.107-.227.107-.46c0-.289.046-.442.143-.479s.143-.184.143-.426c0-.266.04-.371.143-.371s.143-.111.143-.429c0-.299.039-.429.131-.429.081 0 .151-.152.185-.403.03-.222.1-.419.155-.437s.102-.159.102-.312c0-.184.049-.278.143-.278s.143-.095.143-.286.048-.286.143-.286.143-.095.143-.286.048-.286.143-.286.143-.095.143-.286.048-.286.143-.286.143-.095.143-.286c0-.184.049-.286.136-.286.075 0 .164-.129.198-.286s.102-.286.151-.286.088-.064.088-.143.064-.143.143-.143c.095 0 .143-.095.143-.286s.048-.286.143-.286c.079 0 .143-.064.143-.143s.064-.143.143-.143c.095 0 .143-.095.143-.286s.048-.286.143-.286.143-.095.143-.286-.048-.286-.143-.286c-.079 0-.143-.064-.143-.143S23.013 37 22.935 37s-.143-.064-.143-.143-.064-.143-.143-.143-.143-.064-.143-.143-.064-.143-.143-.143-.143-.064-.143-.143-.064-.143-.143-.143-.143-.064-.143-.143-.064-.143-.143-.143-.143-.042-.143-.093-.107-.12-.238-.153-.238-.12-.238-.192-.086-.133-.191-.133-.191-.064-.191-.143-.046-.143-.102-.143-.167-.064-.245-.143a.54.54 0 0 0-.327-.143c-.101 0-.184-.064-.184-.143s-.064-.143-.143-.143-.143-.04-.143-.088-.129-.116-.286-.151-.286-.124-.286-.198-.095-.136-.228-.136c-.126 0-.253-.064-.283-.143s-.159-.143-.286-.143-.256-.064-.286-.143-.12-.143-.201-.143-.146-.039-.146-.088-.129-.116-.286-.151-.286-.102-.286-.149-.169-.114-.376-.147-.398-.119-.426-.192-.177-.132-.332-.132-.296-.044-.314-.098-.203-.125-.412-.159-.437-.119-.507-.189-.274-.127-.454-.127-.327-.039-.327-.086-.225-.117-.501-.155-.525-.107-.556-.154-.288-.113-.572-.146-.541-.096-.57-.14-.383-.108-.787-.143-.734-.095-.734-.134-.418-.103-.93-.141-.952-.104-.98-.147c-.057-.089-4.53-.175-6.268-.12zm41.816 0c-.564.021-1.025.073-1.025.116s-.46.108-1.022.144-1.045.102-1.073.146-.405.111-.837.149-.787.103-.787.145-.258.106-.572.142-.572.1-.572.14-.215.102-.477.137-.477.105-.477.155-.173.092-.384.092c-.254 0-.403.049-.439.143-.031.08-.173.143-.324.143s-.326.057-.396.127-.295.154-.5.187-.398.102-.429.152-.174.121-.318.157-.261.104-.261.151-.083.085-.184.085-.241.057-.311.127-.245.156-.388.192-.261.104-.261.152-.129.114-.286.149-.286.102-.286.151-.064.088-.143.088-.143.064-.143.143c0 .095-.095.143-.286.143-.184 0-.286.049-.286.136 0 .075-.129.164-.286.198s-.286.102-.286.151-.064.088-.143.088-.143.064-.143.143-.064.143-.143.143-.143.064-.143.143c0 .095-.095.143-.286.143s-.286.048-.286.143c0 .079-.064.143-.143.143s-.143.064-.143.143-.064.143-.143.143-.143.064-.143.143-.064.143-.143.143-.143.064-.143.143-.064.143-.143.143-.143.061-.143.136-.129.164-.286.198c-.222.049-.286.115-.286.294 0 .142-.055.231-.143.231-.079 0-.143.064-.143.143s-.064.143-.143.143-.143.064-.143.143-.064.143-.143.143-.143.064-.143.143-.064.143-.143.143-.143.064-.143.143-.064.143-.143.143-.143.064-.143.143-.064.143-.143.143-.143.064-.143.143-.064.143-.143.143c-.095 0-.143.095-.143.286s-.048.286-.143.286c-.079 0-.143.064-.143.143s-.04.143-.088.143-.116.129-.151.286-.124.286-.198.286-.135.064-.135.143-.064.143-.143.143c-.095 0-.143.095-.143.286s-.048.286-.143.286-.143.095-.143.286-.048.286-.143.286c-.087 0-.143.089-.143.228 0 .126-.064.253-.143.283s-.143.159-.143.286-.064.256-.143.286-.143.175-.143.344c0 .193-.047.289-.143.289-.09 0-.143.091-.143.245a.63.63 0 0 1-.143.388.67.67 0 0 0-.143.412c0 .151-.063.293-.143.324-.098.038-.143.191-.143.487 0 .32-.037.432-.143.432s-.143.111-.143.429-.037.429-.143.429-.143.11-.143.421c0 .241-.049.437-.114.459s-.13.306-.155.699c-.023.364-.089.691-.146.728s-.122.402-.142.811-.082.772-.137.807-.119.604-.144 1.359c-.024.713-.081 1.296-.127 1.296s-.083 1.008-.083 2.241l.095 2.241c.057 0 .095.393.095.989v.989l.544.045c.299.025.56.095.58.155.051.153 6.283.157 6.334.004.022-.065.455-.125 1.128-.156.627-.029 1.122-.095 1.16-.154s.402-.12.811-.14c.503-.025.769-.08.82-.169s.254-.132.603-.132c.341 0 .577-.05.67-.143.083-.083.316-.143.555-.143.278 0 .43-.047.467-.143s.184-.143.429-.143.393-.05.429-.143c.032-.082.174-.143.336-.143.155 0 .296-.044.314-.098s.203-.125.412-.159.437-.119.507-.189.21-.127.311-.127.184-.042.184-.094.169-.121.376-.154.398-.119.426-.192.159-.132.292-.132.241-.044.241-.098.075-.127.167-.161.224-.119.293-.188a.51.51 0 0 1 .31-.124c.101 0 .184-.042.184-.094s.104-.12.232-.152.255-.119.283-.193.117-.135.198-.135.146-.042.146-.094.104-.12.231-.152.255-.119.283-.193.117-.134.198-.134.146-.042.146-.094.107-.12.238-.153.238-.12.238-.192.064-.133.143-.133.143-.064.143-.143.045-.143.1-.143.199-.107.321-.238.253-.238.293-.238c.111 0 1.575-1.501 1.575-1.615 0-.056.064-.101.143-.101s.143-.085.143-.191.064-.191.143-.191.143-.064.143-.143.06-.143.133-.143.16-.107.193-.238.102-.238.153-.238.094-.066.094-.146.06-.169.134-.198.161-.156.193-.283.1-.232.152-.232.094-.064.094-.143.064-.143.143-.143.143-.083.143-.184a.54.54 0 0 1 .143-.327c.079-.079.143-.21.143-.293s.064-.15.143-.15c.089 0 .143-.09.143-.241 0-.133.064-.266.143-.296s.143-.158.143-.283c0-.139.056-.228.143-.228.095 0 .143-.095.143-.286s.048-.286.143-.286.143-.101.143-.334.043-.334.143-.334.143-.106.143-.382.04-.381.143-.381c.095 0 .143-.095.143-.286s.048-.286.143-.286c.106 0 .143-.112.143-.432 0-.296.045-.449.143-.487s.143-.189.143-.467c0-.239.06-.472.143-.555s.143-.313.143-.531c0-.282.039-.388.143-.388.114 0 .143-.143.143-.715s.029-.715.143-.715.143-.159.143-.858c0-.681.028-.858.136-.858s.142-.282.167-1.542c.022-1.126.063-1.552.15-1.581s.119-.35.119-1.168-.033-1.139-.119-1.168-.127-.483-.149-1.724l-.03-1.685h-.272c-.15 0-.286-.042-.304-.094-.034-.102-4.538-.194-6.302-.128zM18.237 67.768l.025 4.85 7.212.024 7.212.025.058-.215c.032-.118.058-2.314.059-4.879l.001-4.663-1.405.057c-.852.034-1.418.097-1.438.158-.052.157-7.999.139-8.052-.018-.029-.088-.519-.128-1.868-.153l-1.829-.035.025 4.85z" fill="#9c89ff"/><path d="M25.129.143c0 .079-.064.143-.143.143s-.143.043-.143.095-.064.095-.143.095-.143.061-.143.136-.129.164-.286.198-.286.124-.286.198-.049.136-.108.136-.206.106-.326.235-.328.262-.464.296-.247.122-.247.195-.048.133-.107.133-.273.172-.477.381-.413.381-.466.381-.096.064-.096.143-.064.143-.143.143-.143.064-.143.143-.064.143-.143.143-.143.064-.143.143-.064.143-.143.143-.143.064-.143.143-.064.143-.143.143-.143.064-.143.143-.064.143-.143.143-.143.064-.143.143-.064.143-.143.143-.143.064-.143.143-.064.143-.143.143-.143.064-.143.143-.064.143-.143.143-.143.045-.143.1-.107.199-.238.321-.238.255-.238.296-.15.221-.334.399-.334.367-.334.42-.101.19-.225.305a1.25 1.25 0 0 0-.297.439c-.04.126-.168.319-.286.429s-.246.303-.286.429-.171.321-.293.434-.25.32-.285.462-.099.257-.142.257-.105.125-.139.278-.123.302-.198.331-.137.161-.137.294-.039.241-.088.241-.116.129-.151.286-.099.286-.143.286-.109.129-.143.286-.097.286-.138.286-.099.178-.128.395-.093.421-.141.453-.114.226-.147.431-.098.399-.146.429-.119.291-.158.58-.104.546-.144.572-.089.348-.108.715l-.034.668.381.031c.21.017.416.092.458.167.052.092.246.136.603.136.341 0 .577.05.67.143.084.084.317.143.565.143.312 0 .422.037.422.143s.11.143.419.143c.284 0 .437.046.474.143s.184.143.429.143.393.05.429.143c.03.079.166.143.303.143s.313.064.391.143.269.143.422.143c.185 0 .279.048.279.143s.094.143.276.143c.157 0 .3.062.331.143s.159.143.286.143.256.064.286.143.159.143.286.143.256.064.286.143.163.143.296.143c.151 0 .241.054.241.143 0 .079.064.143.143.143s.143.04.143.088.129.116.286.151.286.124.286.198.064.136.143.136.143.039.143.088.129.116.286.151.286.124.286.198c0 .087.102.136.286.136s.286-.049.286-.136c0-.075.129-.164.286-.198s.286-.102.286-.151.064-.088.143-.088.143-.061.143-.136.129-.164.286-.198.286-.102.286-.151.064-.088.143-.088.143-.064.143-.143c0-.095.095-.143.286-.143s.286-.048.286-.143.095-.143.286-.143.286-.048.286-.143.095-.143.286-.143.286-.048.286-.143.095-.143.286-.143.286-.048.286-.143.095-.143.286-.143.286-.048.286-.143c0-.106.111-.143.429-.143s.429-.037.429-.143.111-.143.429-.143.429-.037.429-.143.111-.143.429-.143.429-.037.429-.143.122-.143.528-.143c.381 0 .543-.04.582-.143s.2-.143.565-.143c.337 0 .535-.045.586-.133.054-.095.333-.143.974-.167.608-.023.911-.072.938-.153.022-.066.101-.119.175-.119.087 0 .135-.103.135-.286 0-.157-.037-.286-.082-.286s-.11-.309-.146-.687-.099-.711-.142-.739-.105-.22-.137-.426-.097-.399-.143-.429-.11-.224-.143-.429-.097-.399-.144-.429-.115-.216-.151-.413-.105-.358-.153-.358-.115-.15-.149-.334-.097-.334-.14-.334-.105-.129-.14-.286-.098-.286-.14-.286-.104-.107-.137-.238-.102-.238-.153-.238-.094-.086-.094-.191-.064-.191-.143-.191c-.09 0-.143-.09-.143-.241 0-.133-.061-.265-.135-.293s-.161-.156-.193-.283-.1-.232-.152-.232-.094-.086-.094-.191-.064-.191-.143-.191-.143-.064-.143-.143-.061-.143-.136-.143-.164-.129-.198-.286-.102-.286-.151-.286-.088-.064-.088-.143-.064-.143-.143-.143-.143-.064-.143-.143-.06-.143-.133-.143-.16-.107-.193-.238-.102-.238-.153-.238-.093-.064-.093-.143-.064-.143-.143-.143-.143-.066-.143-.146-.064-.171-.143-.201-.143-.115-.143-.188-.064-.133-.143-.133-.143-.064-.143-.143-.064-.143-.143-.143-.143-.064-.143-.143-.064-.143-.143-.143-.143-.064-.143-.143-.064-.143-.143-.143-.143-.064-.143-.143-.064-.143-.143-.143-.143-.064-.143-.143-.045-.143-.1-.143-.199-.107-.321-.238-.27-.238-.329-.238-.108-.064-.108-.143-.064-.143-.143-.143-.143-.064-.143-.143-.064-.143-.143-.143-.143-.061-.143-.136-.129-.164-.286-.198-.286-.124-.286-.198-.064-.136-.143-.136-.143-.043-.143-.095-.064-.095-.143-.095-.143-.061-.143-.136-.129-.164-.286-.198-.286-.124-.286-.198-.064-.136-.143-.136-.143-.043-.143-.095-.064-.095-.143-.095-.143-.061-.143-.136-.129-.164-.286-.198-.286-.102-.286-.151S25.572 0 25.415 0c-.191 0-.286.048-.286.143z" fill="#c3b7ff"/><path d="M43.836 30.485c-.564.021-1.025.073-1.025.116s-.46.108-1.022.144-1.045.102-1.073.146-.405.111-.837.149-.787.103-.787.145-.258.106-.572.142-.572.1-.572.14-.215.102-.477.137-.477.105-.477.155-.173.092-.384.092c-.254 0-.403.049-.439.143-.031.08-.173.143-.324.143s-.326.057-.396.127-.295.154-.5.187-.398.102-.429.152-.174.121-.318.157-.261.104-.261.151-.083.085-.184.085-.241.057-.311.127-.245.157-.388.193-.261.104-.261.152-.129.114-.286.149-.286.102-.286.151-.064.088-.143.088-.143.064-.143.143c0 .095-.095.143-.286.143-.184 0-.286.048-.286.136 0 .074-.129.164-.286.198s-.286.102-.286.151-.064.088-.143.088-.143.064-.143.143-.064.143-.143.143-.143.064-.143.143c0 .095-.095.143-.286.143s-.286.048-.286.143c0 .079-.064.143-.143.143s-.143.064-.143.143-.064.143-.143.143-.143.064-.143.143-.064.143-.143.143-.143.064-.143.143-.064.143-.143.143-.143.061-.143.136-.129.164-.286.198c-.222.049-.286.115-.286.294 0 .142-.055.231-.143.231-.079 0-.143.064-.143.143s-.064.143-.143.143-.143.064-.143.143-.064.143-.143.143-.143.064-.143.143-.064.143-.143.143-.143.064-.143.143-.064.143-.143.143-.143.064-.143.143-.064.143-.143.143-.143.064-.143.143-.064.143-.143.143c-.095 0-.143.095-.143.286s-.048.286-.143.286c-.079 0-.143.064-.143.143s-.04.143-.088.143-.116.129-.151.286-.124.286-.198.286-.136.064-.136.143-.064.143-.143.143c-.095 0-.143.095-.143.286s-.048.286-.143.286-.143.095-.143.286-.048.286-.143.286c-.087 0-.143.089-.143.228 0 .125-.064.253-.143.283s-.143.159-.143.286-.064.256-.143.286-.143.175-.143.344c0 .193-.047.289-.143.289-.09 0-.143.091-.143.245a.63.63 0 0 1-.143.388.67.67 0 0 0-.143.412c0 .151-.063.293-.143.324-.098.038-.143.191-.143.487 0 .321-.037.432-.143.432s-.143.111-.143.429-.037.429-.143.429-.143.11-.143.421c0 .241-.049.437-.114.459s-.13.306-.155.699c-.023.364-.089.691-.147.728s-.122.401-.142.811-.082.772-.137.807-.119.604-.144 1.359c-.024.713-.081 1.296-.127 1.296s-.083 1.008-.083 2.241l.095 2.241c.057 0 .095.393.095.989v.989l.543.045c.299.025.56.095.58.155.051.153 6.283.157 6.334.004.022-.065.455-.125 1.128-.157.627-.029 1.122-.095 1.16-.154s.401-.12.811-.14c.503-.025.768-.08.82-.169s.254-.132.603-.132c.341 0 .577-.05.67-.143.083-.083.316-.143.555-.143.278 0 .43-.046.467-.143s.184-.143.429-.143.393-.05.429-.143c.032-.082.174-.143.336-.143.155 0 .296-.044.314-.098s.203-.125.412-.159.437-.119.507-.188.21-.127.311-.127.184-.042.184-.094.169-.121.376-.154.398-.119.426-.192.159-.132.292-.132.241-.044.241-.098.075-.127.167-.162.224-.119.293-.188a.51.51 0 0 1 .31-.125c.101 0 .184-.042.184-.094s.104-.12.231-.152.255-.119.283-.193.117-.134.198-.134.146-.042.146-.094.104-.12.231-.152.255-.119.283-.192.117-.135.198-.135.146-.042.146-.093.107-.12.238-.153.238-.12.238-.193.064-.133.143-.133.143-.064.143-.143.045-.143.1-.143.199-.107.321-.238.253-.238.293-.238c.111 0 1.575-1.501 1.575-1.615 0-.056.064-.102.143-.102s.143-.085.143-.191.064-.191.143-.191.143-.064.143-.143.06-.143.133-.143.16-.107.192-.238.102-.238.153-.238.093-.066.093-.146.06-.169.134-.198.161-.156.193-.283.1-.232.152-.232.093-.064.093-.143.064-.143.143-.143.143-.083.143-.184a.54.54 0 0 1 .143-.327c.079-.079.143-.21.143-.293s.064-.15.143-.15c.09 0 .143-.09.143-.241 0-.133.064-.266.143-.296s.143-.158.143-.283c0-.139.056-.228.143-.228.095 0 .143-.095.143-.286s.048-.286.143-.286.143-.101.143-.334.043-.334.143-.334.143-.106.143-.381.04-.381.143-.381c.095 0 .143-.095.143-.286s.048-.286.143-.286c.106 0 .143-.112.143-.432 0-.296.045-.449.143-.487s.143-.189.143-.467c0-.239.06-.472.143-.555s.143-.313.143-.531c0-.282.039-.388.143-.388.114 0 .143-.143.143-.715s.029-.715.143-.715.143-.159.143-.858c0-.681.028-.858.136-.858s.142-.282.167-1.542c.022-1.126.063-1.553.15-1.581s.119-.35.119-1.168-.033-1.139-.119-1.168-.127-.483-.149-1.724l-.03-1.685h-.272c-.15 0-.286-.042-.304-.094-.034-.102-4.538-.194-6.302-.128z" fill="#8073c5"/></g><path stroke="#8073c5" stroke-width="1.759" d="M76.528 36.065h112.593v31.667H76.528z"/><path d="M83.299 23.814c4.852 0 8.177-3.645 8.177-8.497S88.151 6.82 83.299 6.82s-8.152 3.645-8.152 8.497 3.3 8.497 8.152 8.497zm0-1.823c-3.694 0-6.034-2.857-6.034-6.675 0-3.842 2.34-6.675 6.034-6.675 3.67 0 6.059 2.832 6.059 6.675 0 3.818-2.389 6.675-6.059 6.675zm24.498 1.527l-4.433-6.699c2.241-.197 4.285-1.823 4.285-4.778 0-3.029-2.167-4.951-5.172-4.951h-6.601v16.428h2.044v-6.527h3.3l4.162 6.527h2.414zm-5.566-8.325h-4.31v-6.28h4.31c1.945 0 3.3 1.256 3.3 3.128 0 1.847-1.355 3.153-3.3 3.153zm17.668 8.645c2.685 0 4.926-1.133 6.453-2.857V15.07h-7.684v1.823h5.665v3.325c-.838.837-2.463 1.773-4.434 1.773-3.596 0-6.329-2.783-6.329-6.675 0-3.941 2.733-6.675 6.329-6.675 1.971 0 3.719.936 4.754 2.266l1.625-1.034C124.85 8.1 122.83 6.82 119.899 6.82c-4.679 0-8.448 3.374-8.448 8.497 0 5.098 3.769 8.522 8.448 8.522zm24.998-.32l-6.6-16.428h-2.537l-6.626 16.428h2.34l1.453-3.67h8.177l1.454 3.67h2.339zm-4.384-5.468h-6.97l3.473-8.867 3.497 8.867zm21.359 5.468V7.091h-2.044v12.832L150.37 7.091h-2.093v16.428h2.044V10.416l9.581 13.103h1.97zm7.118 0V7.091h-2.044v16.428h2.044zm12.863.296c2.907 0 4.877-1.379 6.256-3.276l-1.724-.936a5.59 5.59 0 0 1-4.532 2.389c-3.595 0-6.329-2.783-6.329-6.675 0-3.941 2.734-6.675 6.329-6.675 1.872 0 3.596.985 4.532 2.389l1.7-.961c-1.306-1.872-3.325-3.251-6.232-3.251-4.728 0-8.448 3.448-8.448 8.497s3.72 8.497 8.448 8.497zM91.686 60.296c4.433 0 6.059-2.463 6.059-4.828 0-6.133-9.729-4.015-9.729-7.709 0-1.552 1.428-2.611 3.374-2.611 1.798 0 3.522.591 4.754 1.97l1.231-1.502c-1.379-1.453-3.325-2.315-5.813-2.315-3.251 0-5.665 1.872-5.665 4.581 0 5.862 9.729 3.497 9.729 7.734 0 1.281-.936 2.857-3.867 2.857a6.78 6.78 0 0 1-5.148-2.364l-1.231 1.576c1.355 1.527 3.473 2.611 6.305 2.611zM125.083 60V43.572h-2.045v7.069h-9.605v-7.069h-2.044V60h2.044v-7.537h9.605V60h2.045zm21.918.296c4.852 0 8.177-3.645 8.177-8.497s-3.325-8.497-8.177-8.497-8.152 3.645-8.152 8.497 3.3 8.497 8.152 8.497zm0-1.823c-3.695 0-6.034-2.857-6.034-6.675 0-3.842 2.339-6.675 6.034-6.675 3.67 0 6.059 2.832 6.059 6.675 0 3.818-2.389 6.675-6.059 6.675zM170.982 60v-6.527h4.556c3.276 0 5.148-2.266 5.148-4.951s-1.848-4.951-5.148-4.951h-6.601V60h2.045zm4.31-8.349h-4.31v-6.256h4.31c1.945 0 3.275 1.281 3.275 3.128s-1.33 3.128-3.275 3.128z" fill="#8073c5"/></svg>