<svg xmlns="http://www.w3.org/2000/svg" width="34" height="36" fill="none" xmlns:v="https://vecta.io/nano"><path d="M26.273 28.656c-.615 0-1.204-.247-1.639-.686s-.679-1.036-.679-1.657.244-1.218.679-1.657 1.024-.686 1.639-.686 1.204.247 1.639.686.679 1.036.679 1.657-.244 1.218-.679 1.657-1.024.686-1.639.686zm2.318-14.062L31.62 18.5h-6.893v-3.906m-17 14.062c-.615 0-1.204-.247-1.639-.686s-.679-1.036-.679-1.657.244-1.218.679-1.657 1.024-.686 1.639-.686 1.204.247 1.639.686.679 1.036.679 1.657-.244 1.218-.679 1.657-1.024.686-1.639.686zM29.364 12.25h-4.636V6H3.091C1.375 6 0 7.391 0 9.125v17.188h3.091c0 1.243.488 2.436 1.358 3.315A4.61 4.61 0 0 0 7.727 31a4.61 4.61 0 0 0 3.278-1.373c.87-.879 1.358-2.071 1.358-3.315h9.273c0 1.243.488 2.436 1.358 3.315a4.61 4.61 0 0 0 6.557 0c.869-.879 1.358-2.071 1.358-3.315H34V18.5l-4.636-6.25z" fill="#484d6b"/></svg>